P2
180 36
253
51 70 61 78 65 100 114 125 157 242 206 122 122 124 112 114 109 107 121 122 136 253 253 253 253 253 253 253 253 253 253 253 253 253 253 253 253 253 253 253 
253 253 253 253 253 253 253 253 253 253 253 253 253 253 253 253 253 253 253 253 253 253 253 253 253 253 253 253 253 253 253 253 253 253 253 253 253 253 253 253 
253 253 253 253 253 253 253 253 253 253 253 253 253 253 253 253 253 253 235 253 239 253 253 253 253 253 253 253 253 253 188 118 114 108 99 92 85 92 79 93 
92 92 82 66 82 85 107 146 244 253 253 253 253 253 253 253 253 253 253 253 253 253 253 253 231 231 194 166 164 177 200 237 237 253 253 253 253 253 253 253 
253 253 253 239 253 226 190 173 168 151 146 128 139 136 138 124 122 128 154 130 41 45 54 86 92 114 118 124 208 253 161 116 115 111 121 115 116 109 112 112 
124 127 141 133 107 109 111 118 161 166 253 253 253 253 253 253 253 253 253 253 253 253 253 253 253 253 253 253 253 253 253 253 253 253 253 253 253 253 253 253 
253 253 253 253 253 253 253 253 253 253 253 253 253 253 253 253 253 253 253 253 253 253 253 253 253 253 253 253 253 253 253 253 253 253 253 253 253 253 253 237 
253 253 253 253 253 253 253 253 253 253 253 202 108 77 54 52 56 55 60 57 78 96 97 85 76 80 85 101 118 108 118 138 131 161 159 157 151 121 124 118 
116 112 119 112 104 115 131 147 170 170 161 159 206 202 208 253 202 220 253 253 253 253 224 181 170 161 173 141 127 130 133 118 124 109 119 116 115 128 149 134 
23 38 44 67 91 64 88 93 95 100 97 111 114 121 122 109 104 105 99 105 101 104 114 109 122 101 115 107 119 121 147 229 253 253 253 253 253 253 253 253 
253 253 253 253 253 253 253 253 253 253 253 253 253 253 253 253 253 253 253 253 253 253 253 253 253 253 253 253 253 253 253 253 253 253 253 253 253 253 253 253 
253 253 253 253 253 253 253 253 253 253 253 253 253 253 253 253 253 253 253 253 253 253 253 253 253 253 226 237 220 233 226 142 118 93 61 53 42 50 45 44 
47 51 56 61 79 88 92 90 82 69 76 74 90 104 130 114 97 100 107 103 96 111 116 109 109 116 119 124 112 107 128 151 134 134 164 181 179 216 253 242 
206 218 202 175 157 130 138 134 131 124 119 131 141 127 122 119 121 130 138 141 2 6 27 42 45 51 65 46 57 42 46 51 48 55 58 81 87 103 101 95 
84 96 87 84 79 95 108 107 109 93 86 85 96 131 173 164 210 253 253 253 253 253 253 253 253 253 253 253 253 253 253 253 253 253 253 253 253 253 253 253 
253 253 253 253 253 253 253 253 253 253 253 253 253 253 253 253 253 253 253 253 253 253 253 253 253 253 253 253 253 253 253 253 253 253 253 253 253 253 253 253 
253 253 237 206 173 210 206 144 122 119 108 97 105 68 60 69 57 46 45 41 38 56 73 81 91 81 86 88 85 92 105 103 92 99 128 116 112 112 112 119 
115 127 128 119 122 112 119 127 121 139 163 136 152 163 149 146 204 244 242 233 229 204 204 183 154 131 166 173 154 146 125 125 121 127 125 125 128 146 134 131 
6 12 13 10 17 48 85 61 48 41 43 37 52 80 121 104 57 48 46 53 67 59 54 48 52 70 77 97 119 138 177 253 253 253 253 253 253 253 253 253 
253 253 253 253 253 253 253 253 253 253 253 253 253 253 253 253 253 253 253 253 253 253 253 253 253 253 253 253 253 253 253 253 253 253 253 253 253 253 253 253 
253 253 253 253 253 253 253 253 253 253 253 253 253 253 253 253 253 253 253 253 253 253 253 253 231 253 253 253 253 242 194 130 96 58 29 27 32 25 38 66 
77 92 81 79 85 77 81 84 87 100 111 103 115 93 104 119 108 115 109 115 115 128 134 177 159 134 124 116 115 127 130 124 130 173 186 208 177 204 216 242 
253 253 235 177 156 156 188 253 216 170 144 136 125 149 133 128 138 142 130 151 8 11 10 10 12 13 19 41 47 45 50 51 42 53 51 45 51 45 43 43 
56 46 44 51 59 63 54 53 85 115 136 222 253 253 253 253 253 253 253 253 253 253 253 253 253 253 253 253 253 253 253 253 253 253 253 253 253 253 253 253 
253 253 253 253 253 253 253 253 253 253 253 253 253 253 253 253 253 253 253 253 253 253 253 253 253 253 253 253 253 253 253 253 253 253 253 253 253 253 253 253 
253 222 163 149 152 214 253 210 212 188 196 159 127 112 111 95 91 91 99 107 87 91 81 92 82 88 90 84 82 88 84 111 103 122 125 130 139 136 125 142 
181 198 226 224 204 133 141 127 127 121 130 138 136 166 210 183 229 253 253 242 253 253 242 222 190 171 151 138 133 138 138 151 177 149 168 170 149 200 204 192 
9 10 10 8 5 4 8 24 48 51 59 76 88 95 101 87 79 65 60 62 51 67 79 93 108 108 112 154 214 253 253 253 253 253 253 253 253 253 253 253 
253 253 253 253 253 253 253 253 253 253 253 253 253 253 253 253 253 253 253 253 253 253 253 253 253 253 253 253 253 253 253 253 253 253 253 253 253 253 253 253 
253 253 253 253 253 253 253 253 253 253 253 253 253 253 253 253 253 253 253 253 253 237 253 235 184 168 144 157 149 134 127 125 112 118 114 103 103 109 105 104 
118 107 107 100 103 97 107 109 116 107 115 128 138 121 118 127 131 131 196 239 253 253 253 224 177 133 131 136 138 147 157 152 212 216 253 253 253 237 253 253 
253 253 224 177 194 179 212 208 220 198 202 226 218 235 231 226 242 235 237 210 10 6 3 3 3 5 17 37 65 87 96 87 81 79 73 63 55 149 192 216 
196 149 168 164 133 144 166 157 177 226 253 253 253 253 253 253 253 253 253 253 253 253 253 253 253 253 253 253 253 253 253 253 253 253 253 253 253 253 253 253 
253 253 253 253 253 253 253 253 253 253 253 253 253 253 253 253 253 253 253 253 253 253 253 253 253 253 253 253 253 253 253 253 253 253 253 253 253 253 253 253 
253 253 253 253 253 253 181 134 125 112 116 116 118 124 115 118 118 122 124 121 122 128 127 122 131 128 124 116 119 130 144 127 133 127 125 131 136 212 253 253 
253 253 253 253 253 253 214 253 253 253 235 253 244 253 253 253 253 253 253 253 253 200 242 239 253 253 253 253 253 253 253 253 253 253 253 253 253 253 253 253 
4 3 3 4 14 38 70 100 82 71 50 51 49 48 51 100 131 214 222 210 141 111 92 85 81 109 210 253 253 253 253 253 253 253 253 253 253 253 253 253 
253 253 253 253 253 253 253 253 253 253 253 253 253 253 253 253 253 253 253 253 253 253 253 253 253 253 253 253 253 253 253 253 253 253 253 253 253 253 253 253 
253 253 253 253 253 253 253 253 253 253 253 253 253 253 253 253 253 253 253 253 253 253 253 253 253 253 237 147 149 128 124 122 127 122 124 118 127 116 121 115 
130 118 127 121 118 124 127 121 115 124 127 114 116 118 121 134 200 253 253 235 253 253 253 253 253 253 253 253 253 253 253 253 253 253 253 253 253 253 253 253 
253 253 253 253 253 253 253 253 253 253 253 253 253 253 253 253 253 253 244 253 2 2 8 23 49 78 93 81 59 59 60 60 56 64 111 144 196 196 200 212 
194 163 183 159 159 152 134 151 210 253 253 253 253 253 253 253 253 253 253 253 253 253 253 253 253 253 253 253 253 253 253 253 253 253 253 253 253 253 253 253 
253 253 253 253 253 253 253 253 253 253 253 253 253 253 253 253 253 253 253 253 253 253 253 253 253 253 253 253 253 253 253 253 253 253 253 253 253 253 253 253 
253 253 253 253 253 253 220 181 198 194 177 194 157 149 118 131 118 119 115 112 119 111 111 133 119 127 118 119 118 134 115 130 115 130 156 156 149 138 192 214 
253 253 253 253 253 253 253 253 192 253 253 239 253 253 253 253 253 242 229 253 253 244 239 235 235 253 253 253 253 253 253 253 253 253 253 253 253 253 253 253 
3 8 24 48 88 122 80 91 78 76 66 71 54 59 70 80 118 196 168 144 146 124 127 114 108 91 82 69 78 68 81 80 109 101 134 146 229 237 244 253 
253 253 253 253 253 253 253 253 253 253 253 253 253 253 253 253 253 253 253 253 253 253 253 253 253 253 253 253 253 253 253 253 253 253 253 253 253 253 253 253 
253 253 253 253 253 253 253 253 253 253 253 253 253 253 253 253 253 253 253 253 253 253 231 208 163 163 164 183 214 239 200 181 156 154 149 149 144 134 142 136 
138 131 134 124 139 127 127 122 133 142 131 136 130 134 136 130 154 128 170 222 222 253 224 235 253 237 253 253 246 253 253 200 253 253 222 231 253 235 237 253 
253 253 253 253 253 253 242 235 242 229 242 210 216 208 253 253 253 253 253 253 3 14 33 48 104 151 107 101 99 95 76 87 69 62 73 96 109 115 122 116 
130 130 134 128 133 125 114 115 108 122 131 136 144 136 179 179 188 202 204 190 253 253 253 253 253 253 231 253 253 253 246 253 253 253 253 253 253 253 253 253 
253 253 253 253 253 253 253 253 253 253 253 253 253 244 200 164 156 161 183 220 233 226 253 253 253 214 212 253 253 253 253 253 253 253 253 253 253 253 253 253 
253 177 157 151 159 171 231 244 198 151 175 157 152 168 147 142 139 151 136 136 146 147 141 147 141 142 141 138 144 136 144 128 133 146 144 133 141 134 156 168 
168 175 152 161 212 253 196 253 208 253 253 253 253 253 253 253 253 253 253 253 253 253 253 253 253 253 253 242 233 204 194 190 163 204 206 196 237 239 214 253 
2 12 33 34 66 127 124 111 114 127 122 118 121 142 179 196 253 233 253 233 196 208 194 177 175 164 157 134 146 181 186 141 147 138 146 139 168 142 149 157 
171 186 200 208 156 170 166 198 175 161 164 175 188 190 229 253 253 253 253 253 233 212 186 188 206 233 231 242 231 233 194 156 183 183 168 188 190 210 220 181 
184 161 163 186 186 177 168 152 157 157 179 177 168 159 152 146 149 164 171 170 177 141 146 183 214 253 253 190 149 164 161 157 152 144 144 161 144 154 151 144 
149 144 147 146 152 157 146 149 157 154 144 149 157 147 147 144 136 146 147 179 190 192 159 161 175 168 175 222 226 253 253 253 253 253 253 253 253 253 253 253 
253 253 253 253 253 253 253 253 253 231 253 190 231 206 214 220 216 231 222 253 2 12 32 27 55 125 154 164 220 198 253 253 253 220 200 142 246 253 253 253 
253 253 253 253 253 253 253 253 253 253 253 253 233 214 208 214 224 208 200 198 156 214 231 253 239 253 186 168 192 168 173 156 157 157 159 161 166 157 161 168 
171 181 218 231 253 253 235 171 170 196 156 156 166 164 146 149 164 156 163 151 147 141 144 154 190 161 184 156 154 181 198 198 194 200 196 171 161 159 194 168 
152 149 157 177 204 190 149 156 151 154 156 149 156 151 159 144 151 149 156 163 146 146 157 146 144 149 147 151 157 152 156 147 157 138 159 139 144 149 163 198 
214 204 183 183 190 198 157 210 208 253 229 253 253 253 253 214 253 253 253 253 253 253 253 253 253 253 253 253 253 253 253 253 253 253 253 253 253 253 229 253 
1 5 16 31 45 136 222 253 253 253 253 253 253 253 253 253 253 253 253 253 253 253 253 253 253 253 253 253 253 253 253 253 253 253 253 253 253 253 253 253 
218 179 173 220 204 183 200 181 194 204 235 192 190 166 177 166 181 157 183 194 163 242 229 192 239 156 154 166 154 154 152 156 146 149 157 156 151 152 144 147 
156 156 144 154 146 147 159 156 163 159 157 154 147 157 154 156 173 168 170 159 149 163 157 171 173 154 157 147 154 157 157 157 152 154 157 152 156 157 154 170 
157 154 141 161 149 142 156 149 146 157 157 156 147 154 157 152 146 156 146 163 154 144 168 149 173 183 204 179 194 222 235 239 253 208 253 216 253 253 253 253 
253 253 253 253 253 253 253 253 253 253 253 253 253 253 253 253 253 244 237 253 2 2 10 28 27 80 192 246 253 253 253 253 253 253 253 253 253 253 253 253 
253 253 253 253 253 253 253 253 253 253 253 253 253 253 253 253 253 253 253 253 253 202 214 194 166 163 156 154 163 171 157 168 166 161 168 163 163 168 163 170 
163 222 186 188 233 177 196 170 161 156 157 152 144 157 151 152 154 152 149 147 149 157 159 166 159 152 170 157 151 154 157 151 151 168 166 184 163 163 164 157 
157 173 170 184 170 166 175 154 156 184 166 159 163 159 154 156 154 163 154 157 149 159 163 147 147 152 151 152 156 154 152 161 157 152 152 159 144 149 159 159 
142 186 210 163 216 198 177 216 196 231 237 253 244 253 253 220 253 253 253 253 253 253 253 253 253 253 253 253 253 253 253 253 253 253 253 253 253 253 253 253 
1 2 5 19 35 45 124 222 253 253 253 253 253 253 253 253 253 253 253 253 253 253 253 181 231 220 253 253 253 253 253 253 253 253 253 253 253 253 253 253 
156 175 156 156 171 161 156 159 161 159 161 166 157 166 166 161 171 170 163 196 216 175 177 166 183 166 164 159 166 170 171 154 163 163 149 151 163 163 166 159 
166 152 152 157 159 149 159 166 171 159 173 156 161 157 159 157 166 164 154 163 159 163 164 157 164 166 159 157 156 159 154 157 166 152 161 161 152 163 149 157 
154 164 159 154 152 154 152 157 164 161 154 161 159 166 159 163 164 157 154 164 177 229 212 253 226 192 181 161 175 196 253 253 253 244 237 214 253 253 253 253 
253 253 253 253 253 253 253 253 253 253 253 253 253 253 253 253 253 231 253 242 2 2 3 12 26 35 65 164 253 253 253 253 253 253 253 253 253 202 235 253 
253 253 253 224 181 206 204 253 226 231 231 224 253 246 253 253 253 229 239 222 239 208 175 152 175 159 157 163 164 170 163 159 164 164 168 171 161 164 161 164 
171 164 166 170 170 173 170 168 177 166 159 164 170 181 163 157 166 170 168 168 173 157 168 166 170 161 173 170 157 171 161 161 166 171 156 168 166 166 163 164 
190 242 202 163 163 161 159 156 157 157 156 163 152 154 161 154 157 170 159 161 166 163 157 149 168 154 154 154 159 168 164 151 156 156 163 157 173 202 220 253 
253 253 253 253 253 253 237 233 224 229 214 210 208 218 192 253 253 253 253 253 253 253 253 253 253 253 253 253 253 253 253 253 253 253 253 253 242 253 231 220 
1 1 2 7 14 34 48 104 208 253 253 220 253 253 253 253 253 253 194 202 192 253 253 253 253 179 242 253 239 253 253 253 253 253 246 210 231 214 210 224 
242 237 253 242 214 173 173 183 168 164 159 173 164 173 173 179 164 170 166 161 168 166 168 170 175 168 173 168 173 170 166 164 164 166 163 168 173 166 171 164 
171 164 173 170 166 168 164 168 175 163 161 164 173 177 168 166 173 175 168 170 175 183 186 161 164 164 154 171 194 164 163 166 170 166 157 157 170 154 163 159 
151 164 164 161 163 164 168 164 175 161 168 164 161 159 159 194 206 224 253 224 190 231 253 253 253 253 226 206 196 210 202 204 222 253 253 253 253 253 253 253 
253 253 253 253 253 253 253 253 253 253 253 253 253 253 253 253 253 253 242 233 1 2 2 3 12 19 32 52 93 206 253 253 253 253 253 253 253 253 253 253 
244 226 253 253 253 253 253 253 253 253 253 253 253 253 253 253 253 253 253 253 253 253 253 253 253 244 208 161 168 161 181 186 214 220 188 170 168 171 173 177 
171 163 170 173 168 166 194 175 170 179 170 168 181 171 173 170 168 175 164 179 184 181 164 164 186 175 177 168 170 192 168 173 164 175 168 190 196 171 173 186 
202 194 186 190 194 237 208 218 226 253 220 210 218 192 166 163 159 156 161 168 159 168 168 168 164 171 166 164 164 168 163 163 163 164 161 198 204 173 170 181 
175 235 233 229 212 253 253 253 244 253 253 253 253 253 253 222 253 253 253 253 253 253 253 253 253 253 253 253 253 253 253 216 222 220 198 214 194 194 212 206 
2 1 2 1 2 6 11 23 34 60 134 253 253 253 253 253 253 253 253 253 253 253 253 253 253 253 253 253 253 253 253 253 253 253 253 253 253 253 253 253 
253 253 253 253 253 253 253 242 224 218 200 237 253 231 200 220 216 216 216 233 179 171 190 190 179 194 206 190 214 177 168 173 171 163 175 171 177 164 170 173 
175 183 181 204 216 206 226 210 184 183 170 186 188 198 218 214 186 171 184 204 194 194 190 192 190 244 253 253 253 253 253 239 253 229 253 204 196 177 170 177 
166 177 173 161 173 164 181 168 166 161 171 163 161 183 186 186 188 202 177 179 202 192 235 253 253 253 253 253 253 253 253 253 235 216 242 253 220 198 242 244 
239 237 253 253 253 220 198 208 194 194 183 216 186 239 204 202 202 204 216 214 1 2 1 2 1 1 2 6 13 23 27 37 95 202 253 253 253 253 253 253 
253 253 253 253 253 253 253 253 253 253 253 253 253 253 253 253 253 253 253 253 253 253 253 253 253 253 253 253 253 253 253 253 253 253 253 253 253 253 233 210 
216 200 171 168 168 170 170 179 173 175 183 186 184 179 196 204 200 214 198 196 194 198 188 214 231 200 226 229 229 253 244 220 253 253 253 253 253 229 235 237 
253 220 253 253 192 198 239 218 218 214 186 253 253 253 253 253 253 224 224 222 170 163 170 166 175 164 168 164 170 168 175 171 164 166 202 198 198 175 179 186 
218 186 198 239 253 253 237 239 253 204 242 253 246 220 208 192 239 224 231 216 233 226 224 179 177 166 184 154 164 156 163 173 198 231 235 220 198 184 170 168 
1 1 1 1 2 2 2 2 1 3 8 20 30 31 41 96 216 253 253 253 253 253 253 253 253 253 253 253 253 253 253 253 253 253 253 253 253 253 253 253 
253 253 253 253 253 253 253 253 253 253 253 253 253 253 253 253 253 253 253 253 253 253 237 194 186 168 166 170 171 181 173 179 210 198 200 216 220 202 226 244 
253 231 220 202 184 175 188 216 253 253 253 253 253 253 224 253 253 253 253 253 253 253 253 220 210 200 210 229 253 253 253 253 253 253 253 253 253 253 253 229 
253 175 168 170 188 198 206 202 188 202 226 204 212 216 186 196 218 212 171 198 173 177 181 253 253 253 253 231 224 220 216 208 216 226 184 190 196 194 179 229 
198 190 200 170 192 175 175 157 171 168 192 183 179 163 157 147 151 149 130 131 2 1 1 2 2 2 1 2 2 2 1 1 3 14 25 27 35 51 101 206 
253 253 253 253 253 253 253 253 253 253 253 253 253 253 253 253 253 253 253 253 253 253 253 253 253 253 253 253 253 253 253 253 253 253 253 253 253 253 253 253 
253 253 224 175 194 204 210 183 186 175 192 212 194 192 190 186 204 184 188 196 206 229 190 177 171 177 186 253 253 253 253 253 253 253 253 253 253 253 253 253 
253 253 253 253 253 206 179 190 206 214 212 235 200 222 202 229 216 222 218 218 214 253 229 239 239 253 239 224 253 253 208 231 253 253 253 220 166 171 164 177 
159 168 164 200 242 224 204 231 231 229 239 239 194 166 156 163 170 151 164 156 159 175 166 152 157 186 204 206 188 175 166 173 146 141 136 141 122 119 141 122 
1 1 1 1 1 1 1 2 2 1 2 2 1 1 1 3 10 18 24 28 44 70 146 220 253 253 253 253 253 253 253 253 253 253 253 253 253 253 253 253 
253 253 253 253 253 253 253 253 253 253 253 253 253 253 253 253 253 244 231 226 242 253 253 253 226 244 214 246 233 253 246 186 183 177 206 198 204 186 186 194 
173 179 183 177 179 173 183 202 224 253 253 253 253 253 253 253 253 253 253 253 253 253 253 192 206 204 214 253 253 204 192 184 177 194 196 192 194 210 186 212 
220 242 208 224 235 237 253 253 235 253 235 212 222 216 224 179 188 188 166 179 186 190 183 220 226 226 204 214 242 253 239 235 198 159 184 157 156 164 163 147 
152 161 183 177 161 175 179 159 156 154 151 141 159 139 127 124 128 136 134 128 1 1 1 2 1 2 2 2 3 1 1 2 2 1 2 1 2 2 2 6 
16 28 33 33 41 76 138 206 208 253 253 253 253 253 253 253 253 253 253 253 253 253 253 208 220 242 253 253 253 253 253 253 253 253 253 253 253 253 253 253 
253 253 253 253 233 253 246 218 233 222 253 244 220 210 186 171 171 184 171 179 168 164 194 170 175 190 218 237 192 186 212 196 192 188 206 181 181 194 204 233 
222 200 200 212 226 177 177 171 179 183 194 184 188 194 218 204 229 253 253 224 244 220 222 210 200 210 244 200 218 206 198 190 181 214 192 242 218 233 253 235 
202 253 229 220 253 253 253 204 222 212 206 226 222 190 216 188 183 190 194 194 157 190 170 163 159 173 168 157 142 138 144 138 147 161 154 149 161 127 170 166 
2 1 1 1 1 2 2 2 1 2 2 1 2 1 1 1 2 2 1 2 1 2 2 8 18 30 31 35 43 57 92 173 210 210 253 253 253 253 253 253 
253 253 253 253 253 253 253 253 253 253 242 253 253 253 253 253 253 253 253 253 253 253 253 253 253 242 237 253 253 253 253 253 246 253 253 253 198 190 164 202 
192 204 198 196 168 173 198 183 177 181 179 179 181 168 188 175 179 186 170 188 166 183 175 177 175 177 175 164 175 220 231 233 235 214 190 210 220 196 184 198 
204 164 173 170 181 183 190 171 192 220 200 242 233 210 231 224 216 253 214 206 194 224 177 212 212 196 242 222 196 198 210 218 186 170 186 161 157 163 183 196 
164 142 146 166 166 159 157 138 141 154 146 166 151 166 188 173 152 127 134 157 1 1 2 1 2 1 1 2 2 1 1 2 1 2 1 2 2 1 1 2 
1 2 2 1 2 1 4 7 16 25 32 36 41 41 65 107 175 246 253 253 253 253 253 253 253 253 253 253 253 253 253 253 253 253 253 253 253 253 253 253 
253 253 253 253 253 253 253 253 253 253 253 244 253 253 253 253 253 253 253 253 253 253 253 253 253 253 231 179 170 166 194 235 253 253 226 224 224 173 183 202 
188 186 184 184 168 168 200 200 175 168 188 206 206 210 253 206 239 212 214 220 222 202 229 253 253 246 246 253 218 229 253 226 233 224 235 239 253 253 220 226 
214 206 224 222 216 206 190 196 200 181 164 161 147 139 136 141 159 171 179 166 166 171 161 152 161 157 149 156 142 188 184 156 161 127 138 124 119 115 133 127 
2 2 1 2 1 2 1 2 2 2 1 1 2 2 1 2 2 1 1 2 2 1 1 2 2 1 1 1 2 1 2 2 8 17 29 40 47 41 43 59 
90 159 253 253 253 253 253 253 253 253 253 253 253 253 253 253 253 253 253 253 253 253 253 253 253 253 253 253 253 253 253 253 253 253 253 253 253 253 253 253 
253 253 253 253 253 253 253 253 253 253 253 253 253 253 253 253 253 253 253 253 253 233 253 253 253 242 237 218 229 242 253 253 253 246 242 253 253 233 229 218 
224 226 224 220 253 229 224 244 212 233 222 226 210 253 196 222 190 196 210 224 224 246 212 212 226 224 226 206 192 188 192 190 196 220 218 229 202 183 154 186 
200 202 198 186 166 183 168 173 183 210 164 149 131 130 131 121 139 122 114 73 2 1 2 2 1 1 1 1 2 1 1 1 1 1 2 1 2 1 2 1 
1 1 1 1 1 1 2 2 2 2 1 2 1 1 1 1 2 7 14 25 32 33 36 43 54 71 116 184 253 253 253 253 253 253 253 253 253 253 253 253 
253 253 253 253 253 253 253 253 253 253 235 253 253 253 253 231 253 253 253 253 253 253 253 253 253 253 237 242 253 253 253 253 253 253 253 253 253 253 253 253 
253 253 253 253 253 253 253 253 253 237 246 253 253 231 253 253 253 253 253 253 253 253 253 229 253 253 231 253 253 253 253 253 253 253 253 237 231 253 253 233 
237 218 214 175 190 202 218 198 198 190 237 212 210 190 208 179 202 175 177 173 168 159 157 154 124 125 136 139 141 146 131 136 128 118 109 91 66 36 21 15 
2 1 2 2 2 1 2 1 2 2 1 2 2 1 2 2 2 1 1 1 1 2 1 2 2 1 1 2 1 2 1 2 1 1 2 2 1 1 1 1 
1 2 3 7 16 20 28 29 36 42 64 63 82 112 142 204 253 253 253 253 253 253 253 253 253 253 253 253 253 253 253 253 253 253 253 253 253 253 253 253 
253 253 253 253 253 253 253 253 253 253 253 253 253 253 253 253 244 242 253 253 253 253 253 253 253 253 253 253 253 253 253 253 253 253 253 253 253 253 253 253 
253 253 253 253 253 253 244 253 253 253 253 253 253 253 253 253 253 253 253 242 253 253 253 253 253 253 253 253 226 229 198 222 179 151 141 131 124 139 146 151 
154 163 166 154 163 179 161 157 131 118 96 77 67 51 36 27 17 10 7 3 1 2 1 2 1 1 2 2 1 1 1 1 2 1 2 2 2 2 1 1 
2 2 2 2 1 1 1 1 1 1 1 1 2 1 1 1 2 2 2 1 2 1 1 2 2 2 2 1 2 3 6 13 18 22 23 30 36 37 51 59 
60 67 80 101 134 175 218 253 253 253 253 253 253 253 253 253 253 253 253 253 237 253 253 253 253 253 253 253 253 253 253 253 253 253 253 253 253 253 253 253 
253 253 242 253 253 253 253 253 253 253 253 253 253 253 253 253 253 253 253 253 253 253 253 253 253 253 253 253 253 253 253 253 253 253 253 253 253 253 253 253 
253 253 253 253 244 244 200 170 136 168 183 194 210 224 192 181 171 159 166 166 166 144 125 100 78 70 63 51 43 39 30 22 18 8 3 2 2 2 2 1 
1 2 2 1 2 2 2 1 2 1 1 2 1 2 1 1 1 1 2 2 1 1 1 1 1 1 2 2 1 1 1 2 2 1 2 1 2 2 2 3 
2 1 2 1 2 2 2 2 2 1 2 1 2 2 1 3 2 4 3 6 10 13 17 17 21 22 25 30 39 37 46 56 54 59 67 71 77 111 136 157 
192 231 253 253 253 253 253 253 253 253 253 253 253 253 253 253 253 253 253 253 253 253 253 239 235 235 237 253 242 253 253 253 253 253 226 253 253 253 253 244 
253 253 253 242 246 244 226 231 235 242 253 253 239 231 235 220 216 235 222 210 210 198 206 214 186 200 206 192 192 181 184 184 200 175 161 124 119 87 68 59 
55 48 40 33 27 20 14 8 4 3 2 2 2 2 1 1 1 1 2 2 1 2 2 1 2 1 2 2 2 2 2 1 1 2 1 2 2 1 2 2 
2 2 1 2 2 2 1 1 1 2 1 1 1 1 2 1 2 1 1 1 2 1 1 2 1 2 1 1 2 2 2 3 2 2 3 3 4 3 3 3 
3 4 3 2 3 2 2 2 1 2 3 3 6 11 18 25 25 25 31 37 41 37 38 37 37 46 51 56 54 59 69 85 97 95 130 144 156 168 188 200 
206 212 208 218 210 200 210 224 231 239 208 233 253 253 242 253 253 253 244 237 235 253 253 253 253 253 253 253 253 253 253 253 222 218 206 186 175 179 157 164 
154 154 142 119 119 90 77 76 73 64 62 55 49 42 40 36 32 24 20 12 9 5 2 2 2 2 1 2 1 2 1 2 1 1 1 1 1 1 1 1 
1 2 2 2 1 1 2 2 1 1 2 2 2 1 1 1 1 1 2 1 1 2 1 1 2 1 1 1 2 1 2 1 1 1 2 1 2 1 1 2 
2 2 1 1 1 2 1 1 1 1 1 1 2 2 2 2 2 3 4 5 5 5 6 5 7 10 13 12 16 16 35 57 56 48 32 20 19 19 19 19 
18 16 18 18 13 5 3 3 5 10 9 11 11 14 17 17 17 19 20 20 20 26 25 24 30 25 30 26 27 31 29 31 32 41 49 40 41 41 51 56 
61 55 63 66 62 62 72 72 64 58 51 53 49 46 41 43 41 35 32 30 26 30 25 23 25 19 17 12 11 8 6 4 3 2 2 2 2 2 2 1 
2 2 1 1 1 2 1 2 2 2 1 1 1 1 2 2 2 2 1 1 1 1 1 1 1 1 1 2 1 1 2 2 1 2 1 2 2 2 2 1 
2 2 1 2 1 2 1 1 2 2 1 2 1 2 1 2 1 1 2 1 2 1 2 2 1 1 2 1 2 1 1 1 1 1 2 2 1 2 2 3 
3 4 7 13 14 14 18 17 17 18 23 43 61 90 96 74 60 32 20 23 22 20 23 30 33 42 78 107 130 142 147 124 78 47 22 10 9 3 2 1 
2 2 2 1 1 2 3 9 15 32 65 69 70 67 71 59 66 67 65 67 63 49 17 6 3 3 3 2 3 3 2 2 2 2 2 2 2 1 1 2 
2 2 1 2 2 2 2 1 2 2 2 2 2 1 1 2 1 1 1 2 1 1 2 2 2 2 2 2 1 1 2 2 1 1 1 1 2 2 1 2 
