P2
180 36
122
0 0 0 0 0 0 1 0 0 1 1 0 0 0 0 0 0 0 0 0 1 0 1 1 1 1 1 1 2 3 5 5 7 8 8 8 6 6 6 6 
5 5 4 3 1 2 1 1 1 2 3 5 6 7 8 9 12 13 15 23 20 17 17 19 18 13 15 16 24 30 33 37 36 37 43 43 44 42 45 42 
43 43 41 41 41 41 41 43 43 43 41 45 44 43 42 42 43 41 43 41 41 41 42 46 46 45 41 40 40 40 40 39 34 32 27 26 26 27 28 27 
25 25 27 27 22 19 14 11 13 14 14 17 17 19 23 25 25 28 29 24 25 30 32 35 37 38 37 37 37 36 37 37 35 32 31 28 27 29 28 29 
29 27 28 29 28 26 25 23 22 22 19 19 17 18 18 17 16 15 16 15 0 0 0 0 0 1 0 0 1 1 0 0 1 0 0 0 0 0 0 1 
1 1 1 1 1 1 1 1 2 2 2 2 2 4 4 3 2 2 3 3 3 1 1 1 1 1 1 1 1 1 1 2 4 4 6 7 7 9 8 11 
12 12 12 12 11 11 14 24 29 34 39 38 39 41 43 43 43 41 41 41 41 42 41 42 42 41 41 43 45 44 44 45 45 45 44 45 44 44 42 42 
41 37 38 39 42 37 37 38 39 37 36 30 24 19 18 20 20 20 21 19 18 19 16 15 13 11 12 13 12 12 12 12 16 18 17 14 12 12 12 12 
11 12 12 12 12 13 17 19 20 21 21 24 26 25 24 25 25 25 26 24 22 21 21 22 24 27 28 27 25 24 25 24 22 19 20 19 18 17 15 17 
0 0 0 1 1 1 1 1 0 0 0 1 0 0 0 0 0 1 1 1 1 1 1 1 1 1 1 1 1 1 1 1 2 2 2 2 2 2 2 2 
2 1 1 1 1 1 1 1 1 1 1 1 2 2 2 2 4 5 4 6 6 5 6 7 7 8 13 16 18 29 34 37 38 42 41 44 42 41 42 43 
43 44 45 45 45 46 46 46 46 45 44 45 45 44 43 43 41 39 37 37 36 32 29 25 20 20 20 23 25 22 20 17 14 12 11 11 10 10 8 8 
8 8 8 8 8 8 8 8 8 8 9 8 8 8 8 8 8 8 8 9 9 10 10 12 12 12 12 12 12 10 9 8 8 7 6 7 7 8 9 9 
11 11 12 16 14 16 17 17 21 23 27 28 27 28 25 24 21 17 17 15 0 0 1 1 1 1 0 1 0 0 0 0 0 0 0 0 0 1 0 0 
1 1 1 1 1 1 1 1 1 1 3 2 5 6 7 7 7 7 8 7 7 7 7 6 3 2 1 1 1 1 1 1 1 2 2 3 6 6 7 8 
8 9 9 9 10 13 13 20 25 35 39 41 42 44 43 46 47 45 45 45 43 41 44 42 40 39 39 40 41 39 37 35 34 32 29 28 27 24 23 23 
22 21 17 16 17 17 15 15 15 13 11 10 9 7 6 6 4 5 5 6 6 5 5 5 6 6 7 6 7 8 9 10 14 16 19 22 20 15 12 15 
16 20 24 29 30 32 35 34 31 32 32 31 25 23 19 17 16 16 13 12 12 11 10 9 9 8 8 9 9 10 11 14 18 23 24 27 27 27 24 17 
0 1 1 1 1 1 1 0 0 0 0 0 0 0 0 1 0 1 1 1 1 1 1 1 1 1 1 1 1 1 1 1 3 8 9 11 12 15 16 14 
13 14 13 10 9 6 5 3 3 3 4 3 4 4 3 4 7 7 8 9 10 10 10 12 16 21 32 33 37 41 39 31 32 32 32 30 29 32 31 30 
27 22 17 16 15 13 13 12 14 13 13 12 12 13 14 16 17 17 17 15 14 12 12 10 10 10 10 10 9 9 8 6 5 3 3 2 2 3 4 4 
4 4 4 4 3 4 5 7 8 10 13 22 29 33 32 30 29 27 29 35 34 41 44 45 46 46 44 44 46 44 44 42 41 38 35 37 32 29 25 23 
17 17 13 13 11 9 9 9 10 8 8 6 6 7 8 9 12 16 19 21 1 1 1 1 1 0 0 0 0 0 0 0 0 0 1 1 1 1 1 1 
1 1 1 1 1 1 1 1 1 2 2 3 4 3 4 7 8 10 9 10 10 11 10 11 10 9 8 6 6 6 4 4 4 6 6 9 9 7 8 9 
10 11 12 14 17 28 26 36 27 22 18 14 15 14 14 15 13 11 10 10 10 12 13 12 15 17 15 17 14 16 17 18 17 17 17 17 18 15 13 12 
12 12 10 9 8 9 8 7 8 8 5 3 2 2 2 2 3 3 3 3 4 4 3 3 5 6 8 9 12 17 23 27 35 41 41 37 39 46 47 50 
51 52 50 53 51 50 51 48 45 48 45 40 33 33 32 34 30 33 34 29 25 22 19 20 16 18 14 11 12 11 9 9 8 7 7 6 5 5 5 5 
1 1 1 0 0 0 0 0 0 0 0 0 0 1 1 1 1 1 1 1 1 1 1 1 1 1 1 2 2 2 2 2 2 2 3 5 6 7 6 7 
6 8 9 8 6 6 6 7 6 6 9 12 12 15 18 16 17 19 19 24 25 28 29 18 15 17 17 15 14 16 15 13 13 14 16 21 22 25 30 33 
34 30 30 31 39 41 45 46 43 43 36 32 31 26 29 26 24 25 18 17 15 12 10 9 8 5 3 4 3 3 3 3 6 6 7 7 5 5 3 3 
3 2 4 6 8 11 16 20 24 30 37 41 39 37 35 39 42 45 46 50 52 56 52 54 53 52 53 52 51 43 37 35 35 40 39 42 41 41 37 36 
36 35 28 22 17 17 13 13 11 11 12 10 8 9 6 6 5 4 3 3 1 0 0 0 0 0 0 0 0 0 0 0 1 1 1 1 1 1 1 1 
1 1 1 1 1 1 2 1 2 1 2 2 2 2 4 4 5 5 4 4 5 5 5 4 6 6 7 8 8 9 11 13 20 17 24 26 25 24 26 28 
31 31 18 17 15 17 19 21 20 23 27 30 31 28 32 33 37 40 35 37 35 36 42 44 45 42 43 39 43 39 44 41 38 40 33 30 27 29 32 34 
30 29 36 39 37 27 22 16 11 10 6 4 3 3 3 2 2 4 3 4 3 2 4 7 10 11 17 26 23 24 23 17 18 24 30 30 38 37 48 51 
54 52 53 52 54 49 55 56 55 55 55 54 54 55 58 57 56 54 49 46 43 45 41 37 33 27 25 24 25 22 21 18 16 13 11 9 6 5 3 2 
0 0 0 0 0 0 0 0 0 0 0 1 1 1 1 1 1 1 1 1 1 1 1 1 1 1 1 1 1 2 3 5 6 6 5 4 5 3 3 4 
6 7 7 8 10 11 11 13 10 11 13 17 23 20 23 30 28 36 35 29 17 12 12 13 15 18 22 23 23 20 22 24 24 25 26 29 29 32 37 42 
43 53 58 55 60 59 58 52 50 48 51 51 50 46 44 40 37 40 41 39 37 43 51 51 51 48 53 54 51 50 43 37 25 20 17 13 10 11 10 10 
9 9 9 10 12 12 16 17 16 15 20 20 19 23 24 24 29 24 24 29 30 36 37 35 37 42 46 48 52 53 52 51 51 51 48 50 49 51 46 45 
47 51 52 52 49 51 52 44 37 27 20 18 16 17 14 14 11 10 6 4 0 0 0 0 0 0 0 0 1 1 1 1 1 1 1 1 1 1 1 1 
1 1 1 1 1 1 1 1 1 3 3 3 4 5 6 8 7 5 7 7 9 10 12 16 18 20 20 27 25 30 30 29 28 28 26 25 23 22 22 20 
18 17 17 19 22 23 21 20 20 23 25 30 29 33 32 32 32 27 22 20 21 31 36 41 47 53 56 58 59 62 59 58 53 44 36 38 35 37 37 43 
43 49 58 63 63 59 61 62 65 63 62 60 58 55 52 48 45 41 38 41 45 45 46 45 43 40 40 42 44 38 34 37 38 41 40 37 37 37 38 38 
41 43 44 43 41 40 37 35 35 34 34 34 38 40 41 44 44 42 43 41 41 41 41 42 40 38 37 35 31 30 25 21 19 18 17 15 13 10 7 7 
0 0 0 0 0 1 1 1 1 1 1 1 1 1 1 1 1 1 0 1 0 1 1 1 1 1 1 2 3 3 4 8 10 12 17 16 20 19 22 22 
20 22 20 20 17 17 18 18 18 19 22 19 22 20 19 18 23 29 36 39 38 38 42 42 46 48 51 47 51 53 51 49 47 46 44 40 38 35 34 32 
29 30 34 36 32 45 47 48 54 59 59 61 64 63 62 58 54 51 53 52 50 49 51 54 57 63 69 73 74 70 72 67 67 66 62 58 59 59 57 57 
58 59 60 60 58 56 53 51 51 53 52 54 54 54 52 56 51 53 55 56 57 57 57 57 55 52 50 49 46 43 40 36 33 32 28 25 25 27 28 28 
28 28 27 25 25 25 26 25 25 27 24 22 19 14 16 13 10 11 9 9 0 0 0 1 1 1 1 1 1 1 1 1 1 1 0 0 0 0 0 0 
1 0 1 1 1 1 2 4 6 7 9 9 12 16 17 16 14 14 16 19 28 35 37 37 40 40 43 43 51 50 51 51 54 51 52 49 45 45 52 53 
51 51 50 53 55 54 55 50 49 51 51 47 45 37 37 38 36 34 32 31 28 29 25 23 25 30 30 36 44 45 49 50 49 50 52 52 51 51 48 51 
53 56 60 64 67 67 67 70 67 70 68 68 70 72 68 68 73 73 71 69 67 59 61 59 59 57 60 58 59 61 59 61 60 59 59 58 56 55 54 54 
55 53 51 49 52 54 56 54 53 48 44 43 43 43 41 39 41 44 41 34 36 32 35 31 34 32 31 27 21 17 14 13 14 14 14 12 12 10 12 9 
0 0 0 0 1 1 1 1 1 1 1 1 1 1 0 0 0 0 0 1 1 1 1 1 2 3 4 6 6 8 11 14 15 15 25 24 29 30 36 47 
51 54 53 55 50 51 50 51 51 49 53 55 60 61 61 56 55 50 50 50 53 58 59 60 57 57 61 60 52 51 42 38 40 39 40 41 46 51 51 49 
54 51 51 51 51 47 51 51 55 51 56 59 57 62 60 62 65 67 67 67 64 64 68 68 71 70 72 71 70 73 72 73 72 71 69 68 68 69 70 72 
73 73 74 73 74 67 61 59 57 58 58 59 62 60 61 56 58 59 57 56 53 52 53 54 50 54 54 54 56 54 54 50 40 42 38 37 35 36 35 39 
44 43 33 35 29 28 24 25 22 22 19 20 19 24 20 23 19 14 12 10 0 0 0 0 1 0 0 1 1 1 1 1 0 1 1 1 0 1 1 1 
1 2 2 2 4 5 5 6 8 9 10 12 20 25 29 32 38 41 45 48 47 46 47 43 41 42 45 48 51 51 53 56 59 60 62 64 65 67 67 69 
72 72 70 67 59 57 54 52 51 48 45 41 39 42 39 35 34 46 56 58 57 59 58 61 60 63 62 61 62 60 64 63 63 66 65 66 67 66 66 70 
65 67 71 77 79 86 91 95 96 92 93 96 91 88 81 77 74 77 79 76 70 67 61 59 56 62 64 67 68 66 67 63 58 55 57 56 57 58 56 58 
59 53 53 51 54 53 52 43 46 49 51 49 48 46 42 37 30 27 27 27 29 30 34 31 30 31 36 39 39 43 38 38 36 35 26 23 20 17 17 14 
0 0 0 0 0 0 1 0 1 1 1 1 1 1 1 1 1 1 1 1 2 2 2 2 3 3 6 5 7 8 9 10 11 16 25 27 24 28 34 41 
48 50 47 46 49 47 51 51 53 55 61 63 68 70 74 65 57 58 55 55 55 53 49 48 50 52 51 57 57 53 51 48 47 45 49 41 44 41 44 45 
35 35 36 46 55 59 65 69 69 65 58 60 57 58 54 62 66 68 69 73 73 73 70 72 70 67 69 69 68 68 71 73 76 79 77 76 72 72 72 67 
66 63 57 56 58 60 62 68 66 66 68 62 59 54 56 49 50 52 56 52 53 60 59 62 62 62 64 62 59 60 61 62 61 58 61 57 57 56 58 51 
51 53 51 50 51 50 54 48 50 51 54 46 40 27 23 14 11 13 15 13 0 0 0 0 0 0 0 1 0 1 1 1 1 1 1 1 1 1 1 1 
1 3 3 3 3 4 4 5 5 6 8 9 11 14 18 23 28 36 44 46 52 54 51 48 43 45 49 52 58 58 58 58 66 71 74 74 92 92 78 77 
70 60 57 56 56 53 52 56 56 55 52 53 50 51 45 51 60 66 65 63 58 50 51 48 56 60 61 64 66 66 68 63 66 64 65 66 64 63 68 68 
74 74 74 79 73 72 72 76 76 77 80 80 85 84 84 80 78 77 71 70 72 71 69 70 67 57 57 59 63 63 61 58 59 62 59 57 51 47 47 45 
51 51 48 51 54 53 55 56 56 55 54 57 54 53 54 58 56 55 59 60 58 58 59 53 53 54 57 57 59 59 53 49 44 29 22 15 14 12 12 10 
0 0 0 0 0 0 0 0 0 0 0 1 1 1 1 1 1 1 1 1 1 1 2 3 3 2 3 3 4 6 8 8 9 10 13 17 22 22 32 40 
41 51 47 48 47 53 54 51 53 51 53 54 53 56 64 63 65 73 86 97 96 90 76 71 64 58 55 53 49 42 47 47 50 47 47 51 55 61 63 62 
64 66 66 65 60 58 56 59 64 67 67 70 65 68 64 63 63 66 64 62 63 62 65 67 64 59 62 62 64 62 62 63 68 68 69 73 73 70 76 76 
74 69 64 63 60 58 58 58 55 57 56 55 59 54 58 56 59 53 52 52 53 54 57 61 60 57 58 58 58 58 54 54 59 59 59 57 55 51 61 63 
57 53 53 45 39 44 43 37 30 28 35 37 39 31 18 16 13 11 10 8 0 0 0 0 0 0 0 0 1 1 1 0 1 1 1 1 1 1 1 1 
1 1 1 2 2 3 4 3 5 4 4 4 5 7 9 9 12 11 12 18 28 34 41 45 52 46 45 44 42 48 44 47 55 55 57 60 63 69 67 65 
62 66 72 91 109 105 97 92 81 74 63 56 50 55 62 60 61 64 63 60 65 70 68 69 73 69 67 62 66 71 71 71 69 69 70 69 72 72 76 73 
68 66 64 65 66 64 64 63 60 60 59 55 55 54 56 60 62 62 60 58 60 62 63 64 69 69 73 69 70 74 71 72 78 73 69 71 68 62 57 56 
58 58 62 62 62 63 59 57 57 58 56 55 61 62 67 60 61 58 56 47 43 43 45 57 59 51 51 51 42 30 28 30 32 29 19 18 16 13 10 6 
0 0 0 0 0 0 0 0 1 0 1 0 1 1 1 1 1 1 1 1 1 1 1 1 1 2 2 3 3 2 4 3 4 5 7 7 7 10 15 16 
23 29 36 40 49 48 51 53 51 50 51 55 56 56 52 51 56 57 61 66 71 71 70 73 76 90 78 88 90 104 97 101 103 86 73 73 72 73 69 63 
63 58 56 59 58 59 60 57 57 60 69 67 67 66 63 73 76 72 71 77 80 79 76 70 68 64 63 64 66 70 64 64 63 63 58 54 51 47 53 57 
53 55 52 60 62 60 67 74 76 78 66 66 65 65 67 72 74 77 71 68 66 65 67 66 69 66 64 62 64 57 55 49 49 55 51 53 57 58 58 56 
58 60 62 54 46 47 50 51 40 27 20 23 17 26 17 16 14 11 11 6 0 0 0 0 0 0 0 0 0 0 1 1 1 1 0 1 1 1 1 1 
1 1 1 1 1 1 2 1 1 2 2 2 3 4 4 6 6 6 8 9 10 16 17 20 27 30 32 32 30 32 38 37 45 43 47 43 43 52 52 53 
59 60 63 65 68 68 74 71 73 76 77 84 81 81 80 90 103 104 96 87 84 86 78 79 72 71 68 68 70 71 70 68 74 67 67 62 63 65 63 66 
63 62 61 64 62 65 60 67 72 70 63 57 55 57 68 73 78 82 82 76 70 67 63 65 66 65 59 55 56 53 54 56 67 71 79 81 84 84 77 66 
66 66 67 68 72 72 66 65 61 59 57 60 59 60 58 56 50 48 48 45 45 47 46 45 46 45 41 41 37 30 30 20 18 15 17 13 10 9 6 4 
0 0 0 0 0 0 0 0 0 0 1 1 0 0 1 1 1 1 1 1 1 1 1 1 1 1 1 1 1 2 2 2 2 3 3 4 4 6 6 5 
6 7 7 10 12 15 20 23 27 43 42 37 32 34 38 44 51 55 57 55 55 57 57 53 53 55 57 56 50 53 62 67 77 76 78 78 78 72 66 56 
54 61 61 68 70 73 77 82 88 90 97 93 95 87 90 93 96 105 107 107 92 86 79 74 73 78 78 77 77 77 70 69 67 68 72 77 88 104 122 115 
121 109 111 105 85 79 77 71 76 80 82 92 100 99 91 88 85 76 77 76 74 73 77 73 69 67 66 67 63 61 60 63 64 62 61 54 51 52 51 43 
45 38 37 42 44 41 38 35 29 23 24 20 15 14 10 9 7 5 3 3 0 0 0 0 0 0 0 0 0 0 0 0 1 0 1 0 0 1 1 1 
1 1 1 1 1 1 1 1 1 1 1 1 2 3 4 4 4 5 5 5 4 5 5 5 6 6 8 11 16 14 17 17 22 22 23 24 32 38 45 44 
42 51 51 56 55 57 63 61 63 62 61 57 55 54 58 56 58 55 57 62 68 69 76 76 77 81 78 84 81 80 78 81 90 97 93 91 84 78 76 77 
79 87 92 96 100 99 103 92 78 67 69 66 71 73 82 92 105 109 103 101 95 92 90 86 82 84 79 82 81 88 85 88 87 86 82 77 78 73 68 63 
62 68 73 81 84 79 85 79 74 73 67 66 61 55 55 51 52 61 61 65 59 51 46 35 31 25 23 25 20 14 15 10 12 8 7 5 4 3 2 1 
0 0 0 0 0 0 0 0 0 0 0 0 0 0 0 0 0 0 1 1 1 1 1 1 1 1 1 1 1 1 1 1 1 1 1 2 3 3 3 4 
4 4 5 5 6 7 8 6 8 12 10 10 11 12 17 24 19 24 31 28 28 32 33 32 39 40 47 56 61 64 70 68 65 62 63 54 51 51 57 64 
60 67 66 66 73 69 78 76 72 71 70 70 70 66 68 73 80 88 86 86 85 80 82 78 86 100 92 84 77 69 68 76 82 85 87 84 79 79 82 76 
78 76 76 81 84 76 77 85 84 85 81 77 70 72 70 68 67 66 69 67 67 68 62 59 65 68 65 60 59 58 57 56 48 43 41 41 41 46 43 45 
42 35 36 28 26 21 15 16 11 9 7 5 5 4 3 2 2 2 2 1 0 0 0 0 0 0 0 0 0 0 0 0 0 0 0 0 0 0 0 0 
1 1 1 1 1 1 1 1 1 1 1 1 1 1 1 1 1 1 1 2 2 3 4 4 4 5 5 6 7 5 6 9 9 12 11 13 13 15 19 19 
17 18 19 20 23 22 27 34 37 35 35 37 41 45 43 43 56 63 63 53 47 62 66 68 62 66 67 69 76 74 73 74 68 71 79 85 77 79 74 74 
74 74 78 79 74 72 74 77 77 74 73 71 77 76 74 73 71 74 72 72 69 65 69 71 67 63 62 66 71 79 79 76 69 70 67 70 68 63 65 64 
67 74 69 73 70 68 59 57 57 51 45 59 58 48 54 45 35 30 35 35 32 31 27 25 18 15 12 10 8 7 5 5 4 4 3 2 2 1 1 1 
0 0 0 0 0 0 0 0 0 0 0 0 0 0 0 0 0 0 0 1 0 0 1 1 1 1 0 1 1 1 1 1 1 1 1 1 1 1 1 1 
1 1 1 3 3 4 3 4 4 4 6 6 7 7 8 8 9 10 11 12 15 17 21 20 20 17 16 16 17 20 24 29 30 30 27 32 31 42 37 44 
48 53 58 65 67 69 64 59 53 53 55 68 70 68 71 73 74 66 58 62 65 72 78 78 68 63 63 62 60 60 61 65 68 65 66 67 63 64 67 67 
67 64 64 58 57 54 52 59 63 67 70 65 65 64 66 65 61 59 59 47 49 51 47 44 47 52 51 50 38 35 42 45 33 31 33 28 26 25 22 22 
18 16 15 11 10 8 8 5 6 5 4 4 4 3 2 2 2 1 1 1 0 0 0 0 0 0 0 0 0 0 0 0 0 0 0 0 0 0 0 0 
0 0 0 0 0 0 0 1 1 1 1 1 1 1 1 1 1 1 1 1 1 1 1 1 1 1 1 1 3 4 5 5 6 6 6 7 8 9 9 8 
8 9 9 10 10 10 12 12 13 16 17 15 15 15 15 17 19 23 25 27 30 29 33 31 24 27 33 37 43 51 63 71 68 66 60 56 51 47 39 37 
38 45 53 58 63 63 64 55 56 62 72 77 71 71 63 68 67 59 55 53 55 51 56 63 65 51 44 48 52 50 46 50 46 45 42 37 42 50 51 42 
40 38 41 39 34 40 38 29 25 27 32 29 25 19 20 18 17 12 15 13 12 10 9 7 6 6 5 5 5 4 3 3 2 2 1 1 1 1 1 1 
0 0 0 0 0 0 0 0 0 0 0 0 0 0 0 0 0 0 0 0 0 0 0 0 0 0 0 0 0 0 0 0 1 1 1 1 1 1 1 1 
1 1 1 1 1 1 1 1 1 1 1 1 1 2 3 3 6 5 6 6 7 8 7 6 7 7 5 3 3 3 4 7 10 10 12 13 13 14 15 19 
18 17 16 19 22 20 19 20 24 29 32 30 37 34 35 36 29 27 28 35 37 45 45 45 41 48 57 45 50 56 59 63 62 69 67 58 53 51 49 51 
48 51 47 52 63 58 49 45 38 37 35 27 22 21 17 17 19 18 22 26 26 20 18 18 20 19 22 22 20 18 19 16 17 17 14 14 10 9 7 8 
7 6 6 5 4 4 3 3 2 2 2 2 1 2 1 1 1 1 1 1 0 0 0 0 0 0 0 0 0 0 0 0 0 0 0 0 0 0 0 0 
0 0 0 0 0 0 0 0 0 0 0 0 0 1 0 0 1 1 1 1 0 1 0 1 1 1 1 1 1 1 1 1 1 1 1 1 1 1 1 1 
2 3 3 2 3 2 2 1 1 1 1 2 3 5 6 6 6 6 7 8 8 11 10 11 11 13 15 15 14 14 15 18 18 20 18 16 14 17 21 25 
23 24 21 23 25 28 32 34 35 32 29 29 34 35 37 35 41 39 33 33 30 29 30 30 36 35 38 36 30 17 17 19 21 17 14 12 13 14 12 13 
16 15 14 13 15 13 12 12 12 11 10 11 11 10 9 8 8 7 6 5 4 4 3 3 3 3 2 2 2 1 1 1 1 1 1 1 1 1 1 1 
0 0 0 0 0 0 0 0 0 0 0 0 0 0 0 0 0 0 0 0 0 0 0 0 0 0 0 0 0 0 0 0 0 0 0 0 0 0 0 0 
0 0 0 1 0 0 1 0 1 1 1 1 1 1 1 1 1 1 1 1 1 1 1 1 1 2 1 1 1 1 1 1 1 3 5 4 4 5 5 5 
5 5 6 7 7 6 8 10 12 11 9 10 10 11 10 10 10 11 11 12 13 11 12 13 13 15 15 16 18 20 24 22 17 18 20 22 19 17 16 14 
13 14 18 19 20 23 23 25 22 20 16 16 16 13 12 11 12 11 12 12 13 14 13 14 14 12 11 10 10 9 8 7 8 7 5 6 6 6 4 3 
2 2 2 1 1 1 1 1 1 1 1 1 1 1 1 1 1 1 0 1 0 0 0 0 0 0 0 0 0 0 0 0 0 0 0 0 0 0 0 0 
0 0 0 0 0 0 0 0 0 0 0 0 0 0 0 0 0 0 0 0 0 0 0 0 1 0 0 0 0 0 1 1 1 1 1 1 1 1 1 1 
1 1 1 1 1 1 1 1 1 1 1 1 1 1 1 1 1 1 2 2 2 2 3 3 3 4 5 6 8 8 8 7 8 9 10 10 10 10 8 9 
9 9 8 10 9 10 9 10 10 10 10 11 11 11 11 11 11 11 11 11 11 10 11 10 11 11 12 11 10 12 12 10 9 10 10 10 9 10 10 9 
9 8 9 8 8 8 7 7 6 7 5 5 4 3 3 3 2 1 1 1 1 1 1 1 1 1 1 1 1 1 1 1 1 1 0 1 1 0 1 0 
0 0 0 0 0 0 0 0 0 0 0 0 0 0 0 0 0 0 0 0 0 0 0 0 0 0 0 0 0 0 0 0 0 0 0 0 0 0 0 0 
0 0 0 0 0 0 0 0 0 0 0 0 0 1 0 1 1 1 1 1 1 0 1 1 1 1 1 1 1 1 1 1 1 1 1 1 1 1 1 1 
1 1 1 1 1 1 1 1 1 1 1 1 2 3 5 6 6 5 5 6 4 8 8 10 10 10 10 9 8 10 8 8 9 9 8 8 9 9 9 9 
10 9 8 9 8 7 8 8 8 7 7 8 8 6 6 8 6 7 5 5 5 6 5 5 4 5 4 4 2 2 1 1 1 1 1 1 1 1 1 1 
1 1 1 1 1 1 1 1 1 1 1 1 0 0 0 0 0 0 0 0 0 0 0 0 0 0 0 0 0 0 0 0 0 0 0 0 0 0 0 0 
0 0 0 0 0 0 0 0 0 0 0 0 0 0 0 0 0 0 0 0 0 0 0 0 0 0 0 0 0 0 0 0 0 0 0 0 0 0 0 0 
0 0 1 0 0 1 1 1 1 1 1 1 1 1 1 1 1 1 1 1 1 1 1 1 1 1 1 1 1 1 1 1 1 1 1 1 1 1 1 1 
1 1 1 1 1 1 1 1 1 1 1 1 2 2 2 2 3 4 3 4 5 3 6 4 3 3 3 3 4 2 2 3 2 2 3 2 1 1 1 1 
1 1 1 1 1 1 1 1 1 1 1 1 1 1 1 1 1 1 1 1 1 0 1 1 1 0 0 1 0 0 0 0 0 0 0 0 0 0 0 0 
0 0 0 0 0 0 0 0 0 0 0 0 0 0 0 0 0 0 0 0 0 0 0 0 0 0 0 0 0 0 0 0 0 0 0 0 0 0 0 0 
0 0 0 0 0 0 0 0 0 0 0 0 0 0 0 0 0 0 0 0 0 0 0 0 0 0 0 0 1 0 0 0 0 0 0 0 1 1 0 0 
0 1 1 0 1 1 1 1 1 1 1 1 1 0 1 1 1 1 1 1 1 1 1 1 1 1 1 1 1 1 1 1 1 1 1 1 1 1 1 1 
1 1 1 1 1 1 1 1 1 1 1 1 1 1 1 1 1 1 1 1 1 1 1 1 1 1 1 1 1 1 1 1 1 1 1 1 1 1 1 1 
1 0 0 0 1 0 0 0 0 0 0 0 0 0 0 0 0 0 0 0 0 0 0 0 0 0 0 0 0 0 0 0 0 0 0 0 0 0 0 0 
0 0 0 0 0 0 0 0 0 0 0 0 0 0 0 0 0 0 0 0 0 0 0 0 0 0 0 0 0 0 0 0 0 0 0 1 1 1 1 1 
1 1 1 1 1 1 0 0 0 0 0 1 1 1 1 1 1 2 2 2 2 1 1 1 0 0 0 0 0 0 0 0 0 1 0 0 1 1 0 1 
1 1 1 1 1 0 1 1 1 0 1 1 1 1 1 1 1 1 1 1 1 1 1 1 0 1 1 1 1 1 1 1 1 1 1 1 1 1 1 1 
1 1 1 1 1 1 1 1 1 1 1 0 1 0 0 0 0 0 0 0 0 0 0 0 0 0 0 0 0 0 0 0 0 0 0 0 0 0 0 0 
0 0 0 0 0 0 0 0 0 0 0 0 0 0 0 0 0 0 0 0 0 0 0 0 0 0 0 0 0 0 0 0 0 0 0 0 0 0 0 0 
0 0 0 0 0 0 0 0 0 0 0 0 0 0 0 1 1 1 1 1 1 1 1 1 2 2 3 3 3 4 4 5 5 7 10 10 9 10 10 10 
10 10 10 8 4 1 0 0 0 0 1 1 0 0 0 0 0 0 0 0 0 0 0 0 1 0 0 0 0 1 1 1 1 1 1 1 1 1 1 1 
1 1 1 1 0 1 0 0 1 0 0 1 0 0 0 0 0 0 0 0 0 0 0 0 0 0 0 0 0 0 0 0 0 0 0 0 0 0 0 0 
0 0 0 0 0 0 0 0 0 0 0 0 0 0 0 0 0 0 0 0 0 0 0 0 0 0 0 0 0 0 0 0 0 0 0 0 0 0 0 0 
0 0 0 0 0 0 0 0 0 0 0 0 0 0 0 0 0 0 0 0 0 0 0 0 0 0 0 0 0 0 0 0 0 0 0 0 0 0 0 0 
0 0 1 1 3 5 8 9 10 11 12 14 31 46 44 30 17 13 12 12 12 12 13 15 17 13 17 20 25 24 29 20 13 8 6 3 1 1 0 0 
0 0 0 0 0 0 1 1 1 1 1 1 1 1 1 1 1 1 1 1 1 0 0 0 0 0 0 0 0 0 0 0 0 0 0 0 0 0 0 0 
0 0 0 0 0 0 0 0 0 0 0 0 0 0 0 0 0 0 0 0 0 0 0 0 0 0 0 0 0 0 0 0 0 0 0 0 0 0 0 0 
