P2
36 216
253
51 41 23 2 6 8 9 10 4 2 3 3 2 2 1 2 1 2 1 1 2 1 1 2 1 1 2 1 2 2 2 1 1 1 1 1 70 45 38 6 
12 11 10 6 3 2 8 14 12 12 5 2 2 2 1 2 1 2 1 1 1 1 1 1 2 1 1 2 2 2 2 1 61 54 44 27 13 10 10 3 
3 8 24 33 33 32 16 10 5 3 2 2 2 1 1 1 1 1 1 2 1 2 2 1 2 2 2 1 78 86 67 42 10 10 8 3 4 23 48 48 
34 27 31 28 19 12 7 3 1 2 1 2 1 2 1 1 2 2 2 2 1 1 2 1 65 92 91 45 17 12 5 3 14 49 88 104 66 55 45 27 
35 26 14 12 2 1 2 2 1 1 1 2 1 1 2 1 2 2 1 1 100 114 64 51 48 13 4 5 38 78 122 151 127 125 136 80 45 35 34 19 
6 1 2 2 1 2 2 1 2 1 1 1 2 1 1 1 114 118 88 65 85 19 8 17 70 93 80 107 124 154 222 192 124 65 48 32 11 2 2 1 
1 2 2 1 1 1 2 2 2 2 2 1 125 124 93 46 61 41 24 37 100 81 91 101 111 164 253 246 222 164 104 52 23 6 2 2 2 2 2 2 
2 1 1 2 1 2 2 2 157 208 95 57 48 47 48 65 82 59 78 99 114 220 253 253 253 253 208 93 34 13 1 2 2 3 1 2 2 2 2 1 
2 2 1 1 242 253 100 42 41 45 51 87 71 59 76 95 127 198 253 253 253 253 253 206 60 23 3 2 1 1 2 1 2 1 2 1 1 2 1 1 
206 161 97 46 43 50 59 96 50 60 66 76 122 253 253 253 253 253 253 253 134 27 8 1 2 1 2 1 1 1 1 1 1 2 2 2 122 116 111 51 
37 51 76 87 51 60 71 87 118 253 253 253 253 253 220 253 253 37 20 1 2 2 1 2 1 1 2 1 2 1 2 2 122 115 114 48 52 42 88 81 
49 56 54 69 121 253 253 253 253 253 253 253 253 95 30 3 1 2 2 1 2 1 2 2 1 1 2 1 124 111 121 55 80 53 95 79 48 64 59 62 
142 220 253 253 253 253 253 253 253 202 31 14 1 1 1 2 2 1 1 1 2 2 1 2 112 121 122 58 121 51 101 73 51 111 70 73 179 200 253 253 
253 253 253 253 253 253 41 25 1 2 1 1 1 2 2 2 1 1 1 1 114 115 109 81 104 45 87 63 100 144 80 96 196 142 253 253 253 253 253 253 
253 253 96 27 3 1 1 2 2 1 2 2 1 2 1 2 109 116 104 87 57 51 79 55 131 196 118 109 253 246 253 253 253 253 253 253 253 253 216 35 
10 2 2 2 2 2 2 2 1 2 1 2 107 109 105 103 48 45 65 149 214 196 196 115 233 253 253 253 253 202 253 253 253 253 253 51 18 2 2 1 
1 1 1 2 1 1 1 2 121 112 99 101 46 43 60 192 222 200 168 122 253 253 253 253 253 235 194 253 253 253 253 101 24 2 1 1 1 2 1 1 
2 2 2 2 122 112 105 95 53 43 62 216 210 212 144 116 233 253 253 253 253 253 202 253 253 253 253 206 28 6 2 2 2 1 1 1 2 2 1 1 
136 124 101 84 67 56 51 196 141 194 146 130 196 253 253 253 253 253 192 244 253 253 253 253 44 16 1 1 2 1 1 2 1 2 1 2 253 127 104 96 
59 46 67 149 111 163 124 130 208 253 253 253 253 253 253 226 253 253 253 253 70 28 2 2 1 1 2 2 1 2 2 2 253 141 114 87 54 44 79 168 
92 183 127 134 194 253 253 253 253 253 253 253 253 253 253 253 146 33 2 2 1 1 1 2 1 1 1 1 253 133 109 84 48 51 93 164 85 159 114 128 
177 253 253 253 181 224 253 253 253 253 253 253 220 33 8 1 2 1 2 2 1 2 1 2 253 107 122 79 52 59 108 133 81 159 108 133 175 253 253 253 
231 181 253 253 253 253 253 253 253 41 18 2 2 1 2 1 1 2 2 1 253 109 101 95 70 63 108 144 109 152 91 125 164 253 253 253 220 206 179 253 
253 253 253 253 253 76 30 1 1 1 1 1 1 2 1 2 253 111 115 108 77 54 112 166 210 134 82 114 157 253 253 253 253 204 242 253 253 253 253 253 
253 138 31 4 1 2 1 1 2 1 1 1 253 118 107 107 97 53 154 157 253 151 69 115 134 253 253 253 253 253 253 253 253 253 253 253 253 206 35 7 
1 2 2 1 2 1 1 1 253 161 119 109 119 85 214 177 253 210 78 108 146 253 253 253 253 226 239 253 253 253 253 253 253 208 43 16 2 2 1 1 
1 1 2 2 253 166 121 93 138 115 253 226 253 253 68 122 181 253 253 253 253 231 253 253 253 253 253 253 253 253 57 25 1 2 2 1 1 2 1 2 
253 253 147 86 177 136 253 253 253 253 81 131 186 253 253 253 253 231 253 253 253 253 253 253 253 253 92 32 2 1 1 1 1 1 2 1 253 253 229 85 
253 222 253 253 253 253 80 136 141 253 253 253 253 224 253 253 253 253 253 253 253 253 173 36 2 2 2 1 2 1 1 2 253 253 253 96 253 253 253 253 
253 253 109 144 147 233 253 253 253 253 253 253 253 253 253 253 253 253 210 41 8 1 1 2 2 1 1 1 253 253 253 131 253 253 253 253 253 253 101 136 
138 214 253 253 253 246 253 253 253 253 253 253 253 253 210 41 17 1 1 1 1 1 1 2 253 253 253 173 253 253 253 253 253 253 134 179 146 208 253 253 
253 253 246 253 253 253 253 253 253 253 253 65 29 1 2 1 2 2 2 1 253 253 253 164 253 253 253 253 253 253 146 179 139 214 253 253 253 253 210 253 
253 253 253 253 253 253 253 107 40 1 2 1 1 1 1 2 253 253 253 210 253 253 253 253 253 253 229 188 168 224 253 253 253 253 231 253 253 253 253 253 
253 253 253 175 47 2 1 2 2 2 2 1 253 253 253 253 253 253 253 253 253 253 237 202 142 208 253 253 253 229 214 253 253 253 253 253 253 253 253 246 
41 7 1 2 2 1 1 1 253 253 253 253 253 253 253 253 253 253 244 204 149 200 253 253 253 239 210 253 253 253 253 253 253 253 253 253 43 14 1 2 
2 1 1 2 253 253 253 253 253 253 253 253 253 253 253 190 157 198 253 253 253 222 224 253 253 253 253 253 253 253 253 253 59 25 1 1 3 1 2 1 
253 253 253 253 253 253 253 253 253 253 253 253 171 156 218 253 156 239 242 253 253 253 253 253 253 253 253 253 90 32 1 2 2 2 2 2 253 253 253 253 
253 253 253 253 253 253 253 253 186 214 179 202 175 208 237 253 253 253 253 253 253 253 253 253 159 33 2 1 1 1 2 1 253 253 253 253 253 253 253 253 
253 253 253 253 200 231 173 214 156 175 253 253 253 253 253 253 253 253 253 253 253 36 3 1 2 1 1 2 253 253 253 253 253 253 253 253 253 253 253 253 
208 253 220 194 156 152 242 253 253 253 253 253 253 208 253 253 253 43 7 2 1 2 1 2 253 253 253 253 253 253 253 253 253 253 253 253 156 239 204 166 
171 175 214 253 253 253 253 253 253 220 253 253 253 54 16 2 2 1 1 1 253 253 253 253 253 253 253 253 253 253 253 253 170 253 183 163 161 159 173 244 
253 253 253 253 253 242 253 253 253 71 20 2 2 2 2 1 253 253 253 253 253 253 253 253 253 253 253 231 166 186 200 156 156 157 173 208 253 253 253 253 
253 253 253 253 253 116 28 2 2 1 1 2 253 253 253 253 253 253 253 253 253 253 253 253 198 168 181 154 159 163 183 161 242 253 253 253 253 253 253 253 
253 184 29 1 2 1 1 1 253 253 253 253 253 253 253 253 253 253 253 253 175 192 194 163 161 164 168 168 224 253 253 253 253 253 253 253 253 253 36 2 
2 2 1 2 253 253 253 253 253 253 253 253 253 253 253 253 161 168 204 171 159 170 164 161 218 253 253 253 253 253 253 253 253 253 42 3 1 2 1 1 
253 253 253 253 253 253 253 253 253 253 253 246 164 173 235 157 161 163 159 181 200 253 253 253 253 253 242 253 253 253 64 6 2 2 1 1 253 253 253 253 
253 253 253 253 253 253 253 253 175 156 192 168 166 159 173 186 237 253 253 253 253 253 253 253 253 253 63 13 1 3 1 1 253 253 253 253 253 253 253 253 
253 253 253 253 188 157 190 166 157 164 164 214 253 253 253 253 253 253 253 253 253 253 82 18 2 2 2 1 253 253 253 253 253 253 253 253 253 253 253 253 
190 157 166 161 166 164 173 220 231 253 253 253 253 253 253 253 253 253 112 22 2 2 2 1 253 253 253 253 253 253 253 253 253 253 253 253 229 159 177 168 
166 168 173 188 200 253 253 253 253 253 253 253 253 253 142 23 1 3 2 2 253 253 253 253 253 253 253 253 253 253 253 253 253 161 166 163 161 171 179 170 
220 253 253 253 253 253 253 253 253 253 204 30 3 3 2 2 253 253 253 253 253 253 253 253 253 253 253 253 253 166 181 163 171 161 164 168 216 253 253 253 
253 253 253 253 253 253 253 36 2 4 2 1 253 253 253 253 253 253 253 253 253 253 253 253 253 157 157 168 170 164 170 171 216 253 253 253 244 253 253 253 
253 253 253 37 4 3 3 2 253 253 253 253 253 253 253 253 253 253 253 253 253 161 183 163 163 161 166 173 216 233 253 253 231 253 253 253 253 253 253 51 
3 3 4 2 253 253 253 253 253 253 253 253 253 253 253 253 253 168 194 170 196 164 161 177 233 210 253 253 226 253 253 253 253 253 253 59 6 3 5 3 
253 253 253 253 253 253 253 253 253 253 253 253 233 171 163 163 216 171 168 171 179 216 253 253 242 253 253 253 253 253 253 60 10 3 5 3 253 253 253 253 
253 253 253 253 253 253 253 253 212 181 242 222 175 164 166 163 171 200 253 253 253 253 253 253 253 253 253 67 13 4 5 4 253 253 253 253 253 253 253 253 
253 253 253 253 186 218 229 186 177 166 168 170 190 171 237 224 253 253 253 253 253 253 253 80 17 3 6 7 253 253 253 253 253 253 253 253 253 253 253 253 
188 231 192 188 166 170 170 173 190 168 194 175 253 253 253 253 253 253 253 101 17 2 5 13 253 253 253 253 253 253 253 253 253 253 253 253 206 253 239 233 
183 170 175 168 179 168 186 194 226 233 253 253 253 253 253 134 21 3 7 14 253 253 253 253 253 253 253 253 253 253 253 253 233 253 156 177 166 173 168 166 
194 170 168 204 244 253 242 253 253 253 253 175 22 2 10 14 253 253 253 253 253 253 253 253 253 253 253 253 231 235 154 196 164 170 173 194 206 170 166 210 
214 246 237 253 253 253 253 218 25 2 13 18 253 253 253 253 253 253 253 253 253 253 253 253 242 171 166 170 159 168 168 175 190 179 170 183 246 218 253 253 
253 253 253 253 30 2 12 17 253 253 253 253 253 253 253 253 253 253 253 253 231 170 154 161 166 177 173 170 214 173 171 186 233 233 253 253 253 253 253 253 
39 1 16 17 253 253 253 253 253 253 253 253 253 253 253 253 233 196 154 156 170 166 170 179 177 175 181 175 253 222 253 253 253 253 253 253 37 2 16 18 
253 253 253 253 253 253 253 253 253 253 253 253 194 156 152 157 171 159 166 170 168 183 173 192 246 253 253 253 253 235 253 253 46 3 35 23 253 253 253 253 
253 253 253 253 253 253 253 253 156 156 156 152 154 164 164 168 173 186 179 212 186 244 253 244 253 253 253 253 56 3 57 43 253 253 253 253 253 253 253 253 
253 253 253 253 183 166 146 144 163 170 164 181 171 184 210 194 183 220 246 253 253 253 253 253 54 6 56 61 253 253 253 253 253 253 253 253 253 253 253 244 
183 164 149 157 163 181 166 171 163 179 198 192 177 210 253 253 253 253 253 253 59 11 48 90 253 253 253 253 253 253 253 253 253 253 253 200 168 146 157 151 
149 163 163 173 175 196 200 190 206 186 253 253 253 253 253 253 67 18 32 96 253 253 253 253 253 253 253 253 253 253 253 164 188 149 156 152 151 157 168 170 
171 204 216 186 198 171 253 253 253 231 253 253 71 25 20 74 253 253 253 253 253 253 253 253 253 253 253 156 190 164 151 154 163 166 173 168 177 200 220 204 
204 171 198 253 253 253 253 253 77 25 19 60 253 253 253 253 253 253 253 253 253 253 253 161 210 156 152 152 163 170 166 175 164 214 202 184 186 184 190 253 
253 253 253 253 111 25 19 32 253 253 253 253 253 253 253 253 253 253 253 183 220 163 144 149 166 168 171 164 170 198 226 188 186 171 164 253 253 253 253 253 
136 31 19 20 253 253 253 253 253 253 253 253 253 253 253 220 181 151 147 147 159 168 164 179 173 196 244 196 194 179 202 253 253 253 253 253 157 37 19 23 
253 253 253 253 253 253 253 253 253 253 253 233 184 147 156 149 166 173 171 184 175 194 253 206 173 168 192 253 253 253 253 237 192 41 18 22 253 253 253 253 
253 253 253 253 253 253 253 226 161 141 156 157 152 157 164 181 183 198 231 229 179 164 204 253 253 253 253 253 231 37 16 20 253 253 253 253 253 253 253 253 
253 253 253 253 163 144 144 159 152 168 173 164 181 188 220 190 183 194 198 253 253 253 253 253 253 38 18 23 253 253 253 253 253 253 253 253 253 253 253 253 
186 154 154 166 157 166 170 164 204 214 202 177 177 170 196 253 253 253 253 253 253 37 18 30 253 253 253 253 253 253 253 253 253 253 253 253 186 190 146 159 
159 170 166 186 216 231 184 171 179 175 168 253 253 253 253 253 253 37 13 33 253 253 253 253 253 253 253 253 253 253 253 214 177 161 147 152 149 161 168 175 
206 200 175 177 173 190 173 253 253 253 253 253 253 46 5 42 253 253 253 253 253 253 253 253 253 253 253 212 168 184 159 170 159 173 164 177 226 226 188 186 
183 218 198 231 253 237 253 253 253 51 3 78 253 253 253 253 253 253 253 253 253 253 253 253 152 156 156 157 166 170 168 168 210 229 216 253 202 237 183 179 
253 242 253 253 253 56 3 107 253 253 253 253 253 253 253 253 253 253 253 253 157 154 163 151 171 157 175 170 184 229 253 253 224 192 177 170 253 253 253 253 
253 54 5 130 253 253 253 253 253 253 253 253 253 253 253 253 157 181 159 154 159 171 163 192 183 253 253 253 253 186 181 166 253 253 253 253 253 59 10 142 
253 253 253 253 253 253 253 253 253 253 253 253 179 198 157 157 173 161 161 168 170 244 253 253 253 212 179 194 253 253 253 253 253 69 9 147 253 253 253 253 
253 253 253 253 253 253 253 253 177 198 154 151 156 161 164 173 186 220 253 253 253 196 179 235 253 253 253 253 253 85 11 124 253 253 253 253 253 253 253 253 
253 253 253 253 168 194 147 151 161 166 173 164 188 253 253 253 253 192 181 253 253 253 253 253 253 97 11 78 253 253 253 253 253 253 253 253 253 253 253 253 
159 200 157 168 157 171 177 175 198 253 253 253 253 188 168 253 253 253 253 253 253 95 14 47 253 253 253 253 253 253 253 253 253 253 253 253 152 196 154 166 
159 156 168 168 218 253 224 253 253 206 188 226 253 253 253 253 253 130 17 22 253 253 253 253 253 253 253 253 253 253 253 253 146 171 156 184 157 168 166 190 
214 253 253 253 253 181 175 224 253 253 253 253 253 144 17 10 253 253 253 253 253 253 253 253 253 253 253 253 149 161 173 163 166 166 173 196 186 253 253 253 
253 181 179 224 253 253 244 253 253 156 17 9 253 253 253 253 253 253 253 253 253 253 253 253 164 159 168 163 164 166 175 171 171 229 253 253 253 194 186 173 
253 253 242 253 253 168 19 3 235 253 253 253 253 253 253 253 253 253 253 253 171 194 170 164 154 163 168 173 184 235 253 253 253 204 170 183 253 253 253 253 
253 188 20 2 253 237 253 253 253 253 253 253 253 253 253 253 170 168 159 157 163 164 170 186 204 237 253 253 253 233 188 202 253 253 253 253 253 200 20 1 
239 253 253 253 253 253 253 253 253 253 253 253 177 152 149 157 159 190 175 202 194 253 253 253 253 222 166 188 253 253 253 253 253 206 20 2 253 253 253 253 
253 222 237 253 253 253 253 177 141 149 163 173 163 242 183 194 194 220 253 253 253 200 183 186 233 253 253 253 253 212 26 2 253 253 253 237 253 163 253 253 
253 253 231 157 146 157 157 170 164 202 186 186 190 253 253 253 253 200 175 184 253 253 253 242 253 208 25 2 253 253 253 206 253 149 235 253 253 253 208 151 
183 177 171 184 157 163 161 190 192 253 220 253 192 212 177 184 253 253 253 253 239 218 24 1 253 253 253 173 231 152 184 253 253 253 163 159 214 204 173 170 
164 163 164 194 190 192 210 253 206 226 175 168 253 253 253 253 235 210 30 1 253 253 253 210 253 214 168 253 253 253 163 171 253 190 154 166 166 161 164 237 
244 198 200 206 204 177 177 168 242 253 253 253 235 200 25 2 253 253 226 206 253 253 144 181 237 220 164 231 253 149 157 175 159 159 154 208 253 239 210 179 
214 177 175 200 237 253 253 253 237 210 30 3 253 253 237 144 253 210 157 134 147 181 183 244 190 156 147 154 157 156 171 218 253 218 229 190 253 171 164 200 
218 253 253 253 253 224 26 9 253 253 220 122 253 212 149 125 149 198 214 198 149 151 154 156 156 157 194 226 253 218 253 206 253 179 175 175 229 253 253 253 
242 231 27 15 253 253 233 119 242 188 134 112 128 194 239 151 164 154 157 184 159 157 164 253 253 214 253 214 204 183 220 168 242 237 253 253 253 239 31 32 
188 253 226 108 194 196 127 116 124 177 200 175 161 156 157 166 154 156 163 220 253 186 253 212 192 194 231 188 253 246 253 253 253 208 29 65 118 202 142 97 
130 159 125 116 122 194 181 157 157 149 157 159 157 163 166 210 239 253 253 235 184 184 233 206 253 253 253 253 253 233 31 69 114 108 118 105 96 127 112 118 
127 157 156 152 152 156 152 163 166 152 170 218 253 253 253 200 177 188 235 206 253 253 253 253 253 253 32 70 108 77 93 68 58 112 118 124 122 149 154 168 
144 151 154 159 152 154 166 192 229 253 253 222 194 194 214 210 246 231 253 253 253 253 41 67 99 54 61 60 29 111 114 115 124 118 149 147 144 159 157 154 
161 161 157 166 253 253 253 202 196 218 190 253 242 253 253 253 226 242 49 71 92 52 53 69 27 95 103 118 118 131 149 142 161 144 152 156 161 154 157 163 
204 253 253 229 192 204 210 206 253 253 253 253 253 253 40 59 85 56 42 57 32 91 103 118 127 118 144 139 144 151 156 154 152 157 170 159 196 253 253 216 
194 229 220 239 253 253 253 253 253 253 41 66 92 55 50 46 25 91 109 122 116 119 134 151 154 149 157 163 163 170 154 156 177 224 253 222 210 253 196 212 
233 253 253 253 253 253 41 67 79 60 45 45 38 99 105 124 121 115 142 136 151 156 154 154 149 159 163 161 170 224 253 218 186 253 184 214 229 253 253 253 
253 244 51 65 93 57 44 41 66 107 104 121 115 112 136 136 144 163 170 157 157 161 159 168 177 222 229 218 212 224 198 220 218 253 253 253 244 237 56 67 
92 78 47 38 77 87 118 122 130 119 138 146 149 146 157 149 154 166 151 159 166 170 253 214 220 244 204 222 224 253 253 253 253 235 61 63 92 96 51 56 
92 91 107 128 118 111 131 147 144 146 154 159 164 163 164 168 177 163 175 253 242 220 164 202 226 253 253 253 253 253 55 49 82 97 56 73 81 81 107 127 
127 111 134 141 147 157 141 163 159 157 164 168 173 170 168 229 208 222 173 229 224 253 253 253 253 253 63 17 66 85 61 81 79 92 100 122 121 133 124 147 
146 146 161 147 154 149 161 168 161 166 170 239 224 210 170 253 220 229 253 253 242 253 66 6 82 76 79 91 85 82 103 131 118 119 139 141 152 144 149 147 
152 168 163 164 173 175 188 239 235 200 181 253 253 253 253 253 246 253 62 3 85 80 88 81 77 88 97 128 124 127 127 142 157 149 142 152 154 154 164 171 
164 164 198 253 237 210 183 246 229 253 253 253 244 253 62 3 107 85 92 86 81 90 107 124 127 118 127 141 146 147 156 151 152 154 168 166 181 168 206 239 
253 244 190 246 224 231 244 253 226 253 72 3 146 101 90 88 84 84 109 116 121 119 122 138 149 151 149 152 157 154 164 164 168 164 202 224 253 200 171 253 
244 253 253 253 231 253 72 2 244 118 82 85 87 82 116 119 115 118 133 144 157 157 146 156 164 159 175 164 166 170 188 253 235 218 192 218 212 253 253 253 
235 253 64 3 253 108 69 92 100 88 107 130 124 134 142 136 154 152 157 154 161 168 161 168 161 168 202 253 253 206 220 229 233 253 253 253 242 253 58 3 
253 118 76 105 111 84 115 144 127 115 131 144 144 156 157 152 154 164 168 163 171 175 226 208 235 198 200 253 222 253 253 253 253 253 51 2 253 138 74 103 
103 111 128 127 114 130 136 128 149 147 156 161 161 151 164 163 163 171 204 231 212 190 242 226 226 253 253 253 253 253 53 2 253 131 90 92 115 103 138 133 
116 115 130 133 157 157 147 157 159 156 161 163 161 164 212 253 222 181 233 233 210 253 253 253 239 222 49 2 253 161 104 99 93 122 121 127 118 130 134 146 
147 138 154 152 166 156 159 164 183 166 216 253 216 214 210 224 253 253 253 253 231 218 46 2 253 159 130 128 104 125 118 125 121 156 136 144 147 159 157 152 
159 163 159 161 186 202 186 253 224 192 231 235 196 253 253 253 235 206 41 2 253 157 114 116 119 130 127 131 134 156 130 133 144 139 152 159 163 157 194 198 
186 198 196 220 179 242 224 239 222 237 253 253 220 186 43 2 253 151 97 112 108 139 131 136 200 149 154 141 136 144 146 144 164 173 206 204 188 198 218 166 
188 218 216 253 190 231 253 253 216 175 41 2 253 121 100 112 115 136 131 212 253 138 128 134 146 149 156 149 157 202 224 173 202 175 212 171 188 233 253 253 
196 253 253 253 235 179 35 1 253 124 107 112 109 125 196 253 253 192 170 156 147 163 146 159 154 220 253 170 177 179 171 164 166 253 214 220 210 253 253 253 
222 157 32 1 253 118 103 119 115 142 239 253 235 214 222 168 179 198 163 159 164 253 224 181 179 186 198 177 179 235 206 226 224 233 242 253 210 164 30 2 
253 116 96 115 115 181 253 253 253 253 222 168 190 214 154 142 177 253 190 175 202 218 173 159 186 202 194 214 224 237 253 253 210 154 26 2 253 112 111 127 
128 198 253 253 253 253 253 175 192 204 144 186 229 253 231 235 192 186 177 168 190 253 224 206 246 218 253 253 198 154 30 2 253 119 116 128 134 226 253 253 
253 253 224 152 159 183 168 210 212 253 253 233 235 198 181 164 183 229 177 224 212 214 253 253 206 142 25 1 253 112 109 119 177 224 224 253 253 253 235 161 
161 183 149 163 253 253 253 229 253 239 253 200 220 220 212 222 212 175 253 253 214 119 23 2 231 104 109 122 159 204 177 253 253 253 253 212 175 190 173 216 
226 253 253 212 253 253 253 242 226 253 212 216 226 190 253 244 186 119 25 2 231 115 116 112 134 133 133 253 253 253 237 253 168 198 183 198 192 253 253 253 
253 253 253 224 226 253 196 206 224 202 253 244 200 90 19 2 194 131 119 119 124 141 131 214 253 253 253 196 175 157 204 177 181 237 226 253 253 237 253 204 
204 253 242 190 226 218 253 200 206 77 17 2 166 147 124 127 116 127 136 253 253 253 253 253 222 210 179 216 161 233 206 253 253 239 231 231 214 204 222 196 
206 198 253 170 192 76 12 1 164 170 112 121 115 127 138 253 253 192 246 208 226 208 194 196 175 224 196 244 253 253 224 231 242 222 196 200 192 198 226 136 
192 73 11 2 177 170 107 139 127 121 147 253 253 253 253 253 253 253 222 231 196 229 210 253 253 204 220 229 253 212 198 181 188 190 229 168 181 64 8 2 
200 161 128 163 130 130 157 235 253 253 253 253 253 229 235 237 253 214 202 253 253 242 216 239 239 206 210 164 192 237 198 183 184 62 6 2 237 159 151 136 
124 138 152 253 253 239 200 253 253 253 239 253 253 210 204 253 253 253 208 239 235 226 218 161 190 212 222 194 184 55 4 2 237 206 134 152 130 136 212 244 
253 253 253 253 253 253 253 244 253 208 222 253 235 246 216 194 198 222 186 147 196 210 179 210 200 49 3 2 253 202 134 163 173 166 216 253 253 253 253 253 
253 253 208 253 244 218 253 253 216 220 226 166 159 190 170 139 220 190 151 224 175 42 2 1 253 208 164 149 186 210 253 253 253 253 222 253 253 253 253 253 
237 192 253 253 242 208 184 156 184 216 186 136 218 208 141 192 161 40 2 1 253 253 181 146 208 183 253 253 253 253 231 253 253 214 216 220 214 253 253 222 
253 192 190 163 157 188 161 141 229 179 131 181 124 36 2 2 253 202 179 204 177 229 253 253 253 253 253 253 253 253 253 253 253 253 253 253 220 239 196 170 
156 183 157 159 202 202 124 171 119 32 2 1 253 220 216 244 204 253 237 253 253 242 235 253 253 253 253 253 253 253 253 253 198 224 194 151 164 190 163 171 
183 175 139 159 87 24 2 1 253 253 253 242 216 253 253 253 253 229 237 253 253 253 253 253 253 253 253 253 242 231 179 164 163 194 183 179 154 177 146 166 
68 20 2 1 253 253 242 233 242 242 253 253 253 253 253 253 253 253 253 253 253 253 253 253 244 216 229 156 147 194 196 166 186 173 151 166 59 12 1 2 
253 253 206 229 253 253 253 253 253 253 253 253 253 253 253 253 253 253 253 253 239 233 198 159 152 157 164 166 200 168 154 166 55 9 2 1 253 253 218 204 
253 253 253 200 253 244 253 253 253 253 253 253 253 253 253 253 237 226 190 175 161 190 142 171 202 159 163 144 48 5 2 1 253 224 202 204 235 242 224 242 
253 239 253 253 253 253 253 253 253 253 253 253 253 224 200 166 183 170 146 161 198 157 166 125 40 2 1 2 239 181 175 183 177 222 177 239 253 235 253 253 
253 253 253 253 253 253 253 253 253 179 170 152 177 163 166 152 186 154 154 100 33 2 1 2 253 170 157 154 156 190 194 253 253 235 253 253 253 253 253 253 
253 253 253 253 253 177 192 157 161 159 166 161 166 124 163 78 27 2 1 2 226 161 130 131 156 171 179 253 253 253 253 253 253 253 253 253 253 253 253 253 
220 166 175 186 175 173 159 157 183 125 179 70 20 2 2 2 190 173 138 166 188 151 212 253 253 253 242 253 253 253 253 253 253 253 253 253 198 184 175 204 
179 168 157 149 168 136 161 63 14 1 1 2 173 141 134 173 253 138 208 253 253 253 235 242 253 253 253 253 253 253 253 253 208 154 157 206 159 157 138 156 
173 139 157 51 8 2 2 2 168 127 131 154 216 133 220 253 253 253 242 233 253 253 253 253 253 253 253 253 194 164 171 188 156 142 141 142 183 141 131 43 
4 1 2 1 151 130 124 146 170 138 198 253 253 253 229 204 231 253 253 253 253 253 253 253 194 156 168 175 154 138 154 188 210 146 118 39 3 2 2 1 
146 133 119 125 144 138 202 253 253 253 242 194 253 253 253 253 253 253 253 253 183 163 192 166 151 144 146 184 164 131 96 30 2 1 1 2 128 118 131 125 
136 151 226 253 253 253 210 190 190 253 253 253 253 253 253 216 216 173 183 173 141 138 166 156 149 136 77 22 2 2 1 2 139 124 141 121 125 177 218 253 
253 253 216 163 231 253 253 253 253 253 253 222 186 198 179 146 159 147 151 161 131 128 67 18 2 1 1 1 136 109 127 127 149 149 235 253 253 253 208 204 
206 253 253 253 253 253 253 220 239 231 163 141 139 161 166 127 130 118 51 8 2 1 1 1 138 119 122 125 133 168 231 253 253 253 253 206 214 253 253 253 
253 253 253 198 204 235 157 136 127 154 188 138 131 109 36 3 1 1 2 1 124 116 119 125 128 170 226 253 253 253 253 196 220 253 253 253 253 253 253 214 
202 220 147 141 124 149 173 124 121 91 27 2 1 1 2 1 122 115 121 128 138 149 242 253 253 253 253 237 216 253 253 253 253 242 253 194 202 198 151 122 
128 161 152 119 139 66 17 2 1 1 2 2 128 128 130 146 142 200 235 253 253 253 253 239 231 253 244 253 231 253 253 194 204 184 149 119 136 127 127 115 
122 36 10 2 1 1 2 2 154 149 138 134 130 204 237 253 244 253 253 214 222 229 237 253 253 231 242 212 216 170 130 141 134 170 134 133 114 21 7 2 
2 1 1 1 130 134 141 131 151 192 210 253 253 253 253 253 253 253 253 253 242 220 233 206 214 168 131 122 128 166 157 127 73 15 3 1 2 1 1 2 
139 144 151 136 144 173 202 235 224 235 253 253 253 253 253 253 253 253 253 200 216 136 131 152 138 156 161 131 41 15 2 2 2 1 2 2 164 173 147 152 
204 161 192 239 244 214 253 253 253 253 253 239 253 253 253 226 151 141 122 125 139 157 152 92 23 11 1 2 1 1 1 1 151 154 156 156 202 159 175 224 
253 212 253 253 253 253 253 231 253 253 253 183 164 127 127 154 142 134 115 58 17 8 1 1 2 1 2 2 138 154 173 196 186 184 154 242 253 253 253 253 
253 253 253 253 253 244 212 186 164 127 134 130 149 146 97 31 13 3 1 1 1 1 1 1 138 142 163 184 183 171 157 253 253 253 253 253 253 253 253 253 
253 237 208 157 128 125 138 127 151 116 78 24 11 2 1 1 2 2 2 1 122 168 181 188 196 175 152 253 253 253 253 253 253 253 253 253 253 253 210 151 
138 131 115 131 127 96 41 15 4 1 1 1 1 1 1 1 125 156 194 190 190 175 156 253 253 253 253 253 253 253 253 253 253 253 229 177 154 139 124 125 
101 101 27 13 2 1 2 2 1 1 1 2 115 134 192 163 173 157 166 231 253 253 239 253 253 253 253 242 253 253 183 170 124 128 130 127 93 68 15 8 
1 1 1 1 1 1 1 1 121 125 157 171 173 179 152 190 237 253 239 231 239 253 253 253 253 222 186 151 128 133 125 97 99 32 16 2 1 2 1 1 
1 2 2 2 114 125 147 181 168 177 147 164 253 237 253 212 206 253 253 253 235 210 202 146 119 116 100 101 85 23 11 1 1 2 1 1 1 1 1 1 
115 130 131 146 161 166 154 171 235 235 222 220 231 224 244 224 224 235 154 118 124 103 91 95 59 17 7 1 2 1 2 2 2 1 2 2 108 112 121 154 
142 166 147 206 244 235 206 192 190 253 216 222 218 208 149 142 111 86 105 97 27 13 2 1 1 2 2 1 2 1 1 1 115 111 124 144 166 170 177 216 
231 242 237 198 200 253 184 200 192 183 163 118 97 104 88 76 17 9 2 2 2 2 1 1 1 1 1 2 112 111 115 133 151 181 198 204 210 206 200 181 
171 204 210 188 163 168 164 114 96 95 84 37 13 3 1 2 2 2 2 1 1 1 2 2 107 114 114 136 156 184 210 222 188 186 216 173 194 220 192 200 
212 192 136 104 93 78 81 21 11 2 1 1 1 1 2 2 2 2 1 1 101 103 115 114 154 198 210 233 214 202 168 147 222 224 173 224 196 198 127 105 
88 73 60 15 6 2 2 1 1 2 1 1 2 1 1 1 104 114 114 115 170 235 216 226 212 163 157 156 220 237 212 224 192 144 104 87 70 78 31 12 
3 1 1 2 2 1 2 1 2 2 2 2 99 101 111 116 142 212 220 208 171 157 138 133 184 235 166 200 166 114 86 84 65 55 16 9 1 1 1 2 
1 2 2 2 1 1 2 1 95 111 109 112 127 200 204 200 186 164 156 116 188 226 210 149 112 93 81 79 80 25 11 4 1 2 2 1 2 1 2 1 
1 2 2 1 73 95 108 115 112 144 204 208 161 163 161 168 200 175 212 171 116 76 86 78 48 13 12 1 1 2 2 1 2 1 1 2 1 1 1 2 
57 69 80 103 108 121 188 229 210 157 163 168 216 196 198 119 72 72 91 76 21 13 4 1 1 1 1 1 2 2 2 1 2 2 1 2 51 67 77 107 
109 124 196 216 184 157 128 156 183 202 133 111 87 77 100 48 15 8 2 2 1 2 1 1 1 1 2 1 1 2 2 1 48 55 63 87 99 109 159 212 
206 159 124 138 179 138 108 107 80 87 78 25 11 3 1 2 2 1 1 1 2 2 1 1 2 2 1 2 45 55 52 67 76 91 107 168 235 186 125 118 
149 119 127 107 107 101 56 16 7 2 2 2 1 1 1 1 1 2 2 2 1 2 2 1 35 41 47 56 61 59 58 108 210 163 116 141 124 116 112 115 
105 65 29 12 2 1 1 1 2 1 2 2 1 2 1 1 1 1 1 2 32 43 49 48 51 41 45 66 130 173 124 108 112 108 121 109 82 45 17 6 
2 2 2 2 2 1 1 1 2 2 1 2 2 2 2 1 25 40 51 41 35 15 22 41 82 141 134 116 114 119 114 76 42 21 10 2 1 2 2 1 
1 2 2 1 1 2 2 1 2 2 2 1 25 34 41 33 16 11 13 25 43 72 115 105 107 76 66 37 20 15 3 2 2 1 1 2 1 1 3 2 
1 1 2 1 1 1 1 2 12 24 27 15 13 13 9 10 20 40 52 54 64 50 30 17 13 6 2 2 1 1 1 2 2 2 1 2 2 1 1 2 
1 2 2 2 12 12 13 13 10 7 3 3 10 15 22 27 40 19 13 11 8 1 2 1 2 1 1 2 2 1 1 2 2 1 2 1 1 2 2 1 
10 9 10 12 9 3 2 2 4 5 10 12 13 13 10 6 2 1 2 2 1 1 2 2 1 1 1 1 1 2 1 2 2 2 2 1 6 9 9 10 
3 2 2 3 3 2 2 7 8 7 4 1 1 2 1 1 1 1 2 1 2 1 1 2 2 1 2 1 1 1 1 1 2 4 6 5 2 2 1 3 
1 2 1 1 1 2 1 2 2 1 2 2 2 1 1 2 1 1 1 1 2 2 2 2 1 2 1 2 1 2 3 2 2 2 2 2 1 2 1 2 
2 1 2 2 1 2 1 2 2 2 2 2 2 1 1 2 1 2 2 1 1 2 2 1 2 2 2 2 1 1 1 2 2 1 2 1 1 2 2 1 
1 2 2 2 2 1 2 2 1 2 1 1 2 2 1 2 1 2 2 1 1 2 1 2 1 2 1 2 2 1 1 2 2 1 1 2 1 2 2 1 
2 1 1 1 2 2 2 2 2 2 1 1 1 2 2 2 