P2
36 216
131
0 0 0 0 1 1 1 1 0 0 0 0 0 0 0 0 0 0 0 0 0 0 0 0 0 0 0 0 0 0 0 0 0 0 0 0 1 0 0 1 
1 1 1 1 1 0 1 1 0 0 0 0 0 0 0 0 0 0 0 0 0 0 0 0 0 0 0 0 0 0 0 0 0 0 0 1 1 1 1 1 
0 0 0 1 1 1 0 1 0 0 0 0 0 0 0 0 0 0 0 0 0 0 0 0 0 0 0 0 0 0 1 1 1 1 1 0 0 0 1 1 
1 1 1 1 1 0 0 0 0 0 0 0 0 0 0 0 0 0 0 0 0 0 0 0 0 1 1 1 1 1 1 0 0 1 1 1 1 1 1 1 
1 0 0 0 0 0 0 0 0 0 0 0 0 0 0 0 0 0 0 0 0 1 1 1 1 1 1 0 0 1 1 1 1 1 1 1 0 1 1 0 
0 0 0 0 0 0 0 0 0 0 0 0 0 0 0 0 1 1 1 1 1 1 0 0 0 1 1 1 1 1 1 0 1 1 1 0 0 0 0 0 
0 0 0 0 0 0 0 0 0 0 0 0 1 1 1 1 1 1 0 0 1 1 1 1 1 1 1 1 1 1 1 1 0 0 0 0 0 0 0 0 
0 0 0 0 0 0 0 0 1 1 1 1 1 0 0 0 1 1 1 1 1 1 1 1 1 1 1 1 1 0 0 0 0 0 0 0 0 0 0 0 
0 0 0 0 1 1 1 1 1 1 1 0 1 1 1 1 1 1 1 1 1 1 1 1 1 1 0 0 0 0 0 0 0 0 0 0 0 0 0 0 
1 1 1 1 1 0 1 1 1 1 2 1 1 1 1 1 1 1 1 1 1 1 0 0 0 0 0 0 0 0 0 0 0 0 0 0 1 1 1 1 
1 1 0 1 1 1 3 1 1 1 1 1 1 1 1 1 1 1 0 0 0 0 0 0 0 0 0 0 0 0 0 0 1 1 1 1 1 1 1 1 
1 3 3 1 1 1 1 1 1 1 1 1 1 1 1 0 0 0 0 0 0 0 0 0 0 0 0 0 1 1 1 0 1 1 1 1 1 6 3 1 
1 1 1 1 1 1 1 1 1 1 1 0 0 0 0 0 0 0 0 0 0 0 0 0 1 1 1 1 1 1 1 1 1 6 2 1 1 1 1 2 
1 1 1 1 1 1 1 0 0 0 0 0 0 0 0 0 0 0 0 0 1 1 0 1 1 1 1 1 2 4 1 1 1 1 1 2 2 1 1 1 
1 1 1 1 0 0 0 0 0 0 0 0 0 0 0 0 1 1 1 1 1 1 1 1 3 4 1 1 1 1 2 2 1 1 1 1 1 1 1 1 
1 0 0 0 0 0 0 0 0 0 0 0 1 1 1 1 1 1 1 2 2 2 1 1 1 1 3 3 3 1 2 1 1 1 1 1 0 0 0 0 
0 0 0 0 0 0 0 0 1 1 1 1 1 1 2 2 2 1 1 1 1 1 4 4 3 2 2 1 1 1 1 1 1 0 0 0 0 0 0 0 
0 0 0 0 1 1 1 1 1 1 5 2 2 1 1 1 1 2 4 4 5 3 2 2 1 1 1 1 1 0 0 0 0 0 0 0 0 0 0 0 
1 1 1 1 1 2 7 2 2 1 1 1 1 4 5 6 6 3 2 2 2 1 1 1 1 0 0 0 0 0 0 0 0 0 0 0 1 1 1 1 
1 3 7 1 3 1 1 1 2 5 7 8 6 5 4 4 2 1 1 1 1 1 0 0 0 0 0 0 0 0 0 0 1 1 1 1 3 5 8 2 
3 2 1 1 3 6 8 9 8 8 5 4 3 1 1 1 1 0 0 0 0 0 0 0 0 0 0 0 1 1 1 1 3 5 8 2 4 2 1 1 
3 7 8 10 9 7 7 4 3 1 1 1 1 1 0 0 0 0 0 0 0 0 0 0 2 2 1 1 4 6 8 3 4 2 2 2 5 9 10 11 
11 8 8 6 3 2 1 1 1 1 1 0 0 0 0 0 0 0 0 0 6 3 2 1 4 6 8 4 4 4 4 3 8 9 10 9 11 9 7 7 
5 3 2 1 1 1 1 0 0 0 0 0 0 0 0 0 8 5 2 1 7 8 8 5 6 3 6 6 9 10 13 10 10 10 8 7 5 3 2 1 
1 1 0 0 0 0 0 0 0 0 0 0 9 5 3 4 7 8 7 6 6 4 8 9 10 12 13 11 12 11 8 7 6 4 2 1 1 1 1 0 
0 0 0 0 0 0 0 0 11 6 3 5 7 8 8 7 7 5 8 12 12 11 16 15 10 10 8 8 6 4 2 1 1 1 1 1 0 0 0 0 
0 0 0 0 14 6 5 6 11 8 8 6 8 6 9 17 14 13 21 17 12 11 10 8 6 4 2 2 1 1 1 0 0 0 0 0 0 0 0 0 
18 6 6 7 14 8 7 7 8 10 12 21 33 19 23 18 17 14 10 9 7 5 4 2 1 1 1 1 0 0 0 0 0 0 0 0 22 9 6 10 
17 9 7 7 9 12 16 25 41 33 26 27 23 23 11 8 8 5 3 3 1 1 1 1 0 0 0 0 0 0 0 0 22 8 8 12 18 9 8 8 
10 12 22 27 47 46 29 30 30 27 15 10 9 6 4 3 1 1 1 1 0 0 0 0 0 0 0 0 25 10 9 16 22 9 8 8 10 14 28 28 
48 50 32 37 32 31 17 10 9 7 4 4 2 1 1 1 0 0 0 0 0 0 0 0 24 8 7 17 20 10 8 8 12 13 29 32 55 54 40 32 
37 30 22 12 9 7 6 5 3 1 1 1 1 0 0 0 0 0 0 0 18 8 9 20 20 12 8 8 12 14 33 33 54 56 45 39 39 29 29 15 
10 9 6 4 3 1 1 1 1 0 0 0 0 0 0 0 16 6 8 18 21 14 9 9 12 14 31 32 58 57 42 45 45 34 35 16 13 9 6 5 
4 1 1 1 1 0 0 0 0 0 0 0 16 8 8 18 25 20 10 10 12 13 32 34 61 60 44 50 49 39 41 22 14 10 6 5 4 2 1 1 
1 1 0 0 0 0 0 0 15 8 7 16 29 23 13 12 13 13 32 37 58 60 47 57 52 40 45 28 21 12 8 5 5 2 1 1 1 1 0 0 
0 0 0 0 15 9 6 16 27 26 13 11 15 16 29 41 65 58 53 60 54 46 49 35 21 14 8 7 5 4 1 1 1 0 0 0 0 0 0 0 
16 7 4 16 25 19 12 12 16 17 29 44 68 63 61 64 61 51 51 40 22 13 10 6 6 5 1 1 1 1 0 0 0 0 0 0 15 6 3 16 
23 20 14 14 17 20 27 51 67 58 61 63 64 55 58 46 26 14 10 8 5 5 1 1 1 1 0 0 0 0 0 0 12 6 2 17 23 18 14 15 
22 27 29 51 72 53 65 66 62 59 64 56 28 17 12 7 6 6 1 1 1 1 0 0 0 0 0 0 7 5 2 13 17 28 16 14 23 34 28 50 
67 56 65 62 65 65 68 55 33 18 15 9 6 5 4 1 1 0 0 0 0 0 0 0 7 5 2 12 14 26 24 15 29 39 27 51 65 54 65 62 
66 64 65 65 39 23 11 11 7 5 4 1 1 1 0 0 0 0 0 0 6 5 2 10 13 21 13 16 26 41 27 51 67 55 62 58 66 66 65 64 
41 25 13 12 7 6 5 1 1 1 0 0 0 0 0 0 6 4 2 9 10 12 14 13 36 35 27 51 66 55 60 60 66 62 68 66 52 29 15 15 
8 6 5 1 1 1 1 0 0 0 0 0 6 5 2 5 8 12 12 20 41 37 27 55 67 59 64 66 63 62 68 64 56 35 22 16 8 7 6 1 
1 1 1 0 0 0 0 0 6 5 1 4 9 11 14 37 39 38 25 59 66 67 65 68 66 60 67 64 61 36 27 17 8 8 6 2 1 1 1 0 
0 0 0 0 7 6 2 5 10 9 19 36 37 37 30 62 61 67 68 68 64 62 67 67 70 42 32 19 9 8 6 2 1 1 1 0 0 0 0 0 
9 7 4 5 10 9 24 41 41 36 29 62 66 74 74 72 65 60 68 66 65 46 35 17 10 9 8 4 1 1 1 1 0 0 0 0 11 8 5 6 
10 11 35 41 43 34 32 60 69 73 82 77 66 61 69 66 67 53 33 17 12 9 8 4 1 1 1 1 0 0 0 0 14 10 6 8 10 12 41 45 
40 32 32 64 78 76 96 87 71 63 72 68 60 56 29 17 13 11 8 5 1 1 1 0 0 0 0 0 16 9 6 10 8 13 45 46 47 35 36 64 
77 82 105 104 70 67 71 66 52 58 35 23 14 12 9 5 1 1 1 0 0 0 0 0 22 14 7 12 12 19 42 49 48 33 35 62 69 87 103 111 
73 66 73 63 58 49 42 30 18 13 10 6 1 1 1 1 0 0 0 0 24 13 9 12 14 23 37 45 45 32 37 56 64 99 88 115 86 69 67 60 
65 54 49 31 20 12 10 6 2 1 1 1 0 1 1 0 29 15 10 13 19 22 35 44 45 29 40 56 61 100 78 119 103 74 67 64 67 58 53 37 
22 14 11 6 3 1 1 1 0 1 1 0 32 16 12 14 20 23 34 43 45 29 44 55 58 104 73 119 105 78 68 70 69 66 55 41 23 14 11 8 
3 1 1 1 1 1 1 0 35 17 15 15 20 29 41 45 48 27 47 58 59 101 71 119 122 84 70 66 72 67 59 37 23 15 11 8 3 1 1 1 
1 1 1 0 37 17 15 18 19 29 38 44 43 24 50 59 64 95 65 90 124 82 77 68 69 65 59 40 22 15 13 9 4 1 1 1 1 1 1 1 
42 21 15 16 18 24 45 47 32 24 50 59 65 97 73 76 119 88 80 67 72 63 63 41 27 18 12 10 6 1 1 1 1 1 1 1 42 24 14 15 
20 25 49 41 25 20 49 59 71 93 61 69 114 103 86 69 70 66 61 40 31 18 13 10 6 1 1 1 1 1 1 1 42 29 10 17 22 37 46 30 
19 22 50 60 73 90 60 65 100 111 91 71 76 68 60 43 38 18 12 10 5 2 1 1 1 1 1 1 42 30 12 17 22 42 44 22 23 23 51 62 
78 80 58 61 92 116 104 76 69 70 68 51 42 21 12 10 6 2 1 1 1 1 2 2 41 29 13 20 30 43 37 25 24 28 57 67 76 73 60 66 
88 124 118 82 67 74 69 51 43 22 13 8 7 3 1 1 1 1 2 3 36 30 16 24 42 46 27 28 29 29 57 66 76 66 62 64 82 124 128 88 
65 76 71 58 43 27 15 7 5 3 1 1 1 1 3 6 37 35 22 30 44 50 25 30 31 29 58 64 71 63 62 66 69 127 128 95 68 77 73 63 
35 27 16 6 3 3 1 1 1 0 3 9 40 37 28 31 48 46 21 30 32 28 57 58 68 63 65 65 63 121 128 95 68 87 77 67 35 30 15 4 
2 2 1 1 1 0 3 10 40 41 30 35 48 43 22 31 30 29 58 59 64 57 63 66 60 107 131 97 60 88 81 70 41 32 15 4 2 2 1 1 
1 0 4 11 45 45 40 44 48 35 25 36 30 35 62 59 59 57 63 63 57 91 127 97 69 81 84 67 56 32 18 6 1 2 1 1 1 0 6 12 
51 47 42 45 46 30 30 37 32 36 63 57 52 59 65 59 55 79 127 97 71 77 86 69 56 30 19 9 2 2 1 1 1 1 7 12 46 48 45 48 
45 20 30 41 32 38 63 55 49 55 61 63 56 68 127 99 78 72 81 71 65 33 24 12 3 2 2 1 1 1 7 16 45 47 46 48 44 20 25 45 
35 39 58 52 51 62 61 61 59 67 127 114 90 70 81 73 64 32 28 11 4 2 1 1 1 1 9 33 46 45 47 49 44 20 27 45 41 42 58 48 
52 62 61 57 59 63 118 107 97 66 79 71 63 27 30 12 7 2 1 1 1 1 12 50 49 49 49 47 41 20 29 47 48 42 55 51 53 57 59 59 
59 70 105 103 104 66 79 74 57 30 34 16 8 4 1 1 1 2 14 48 50 46 47 51 37 20 32 45 47 40 53 54 59 57 56 62 59 69 92 114 
96 68 77 74 51 30 33 17 9 4 1 1 1 2 12 32 49 47 47 50 35 18 38 53 50 37 51 53 57 53 57 68 62 69 107 121 88 68 77 73 
53 40 32 16 9 5 1 1 1 3 10 18 46 47 45 51 38 17 41 49 53 32 45 54 61 58 59 73 69 74 101 121 80 68 74 80 60 52 30 17 
8 5 2 1 1 4 10 14 50 45 46 49 40 17 46 49 56 30 41 57 61 63 59 71 70 72 101 111 77 70 76 78 71 54 31 17 8 6 2 1 
1 4 11 13 47 45 46 49 41 18 51 47 58 34 37 52 65 64 56 70 74 77 91 107 74 71 73 74 73 58 37 17 10 6 3 1 1 4 11 12 
47 45 47 47 37 18 47 48 63 41 37 49 63 64 52 67 73 74 78 101 67 76 74 71 72 64 39 16 10 6 4 1 1 3 11 12 46 46 47 46 
33 19 45 52 64 49 38 40 63 66 50 66 74 78 78 100 70 78 74 74 74 66 33 22 11 6 4 1 1 2 11 13 45 45 48 48 30 18 48 54 
68 53 41 36 61 67 53 64 72 80 76 95 71 84 74 85 73 65 34 22 14 6 4 1 1 1 11 13 45 46 50 45 25 23 49 58 67 55 46 36 
61 66 57 63 74 81 73 96 76 88 78 80 77 62 37 22 14 7 4 1 1 1 10 16 45 46 47 44 19 24 51 55 71 62 51 37 58 67 66 66 
71 79 74 90 81 96 84 92 80 56 32 22 14 8 4 1 1 1 5 17 45 45 48 42 19 26 54 57 68 65 55 38 54 72 70 67 71 78 71 91 
85 97 82 92 80 57 33 22 16 8 4 1 1 1 1 16 45 44 48 42 19 29 55 54 69 62 56 39 57 73 77 72 70 73 69 84 91 99 90 88 
80 52 41 28 17 8 5 1 1 1 0 21 46 45 48 44 18 30 56 58 65 67 60 43 59 71 76 78 72 76 70 84 99 100 95 103 74 63 41 26 
19 11 6 1 1 0 0 27 46 47 48 45 18 29 57 58 63 72 64 51 61 71 79 80 74 73 71 82 105 105 92 104 70 68 53 24 25 13 7 1 
1 1 0 32 45 46 48 43 17 29 53 57 62 69 67 50 60 74 76 82 77 80 76 82 107 109 97 100 71 74 59 25 24 13 7 2 1 1 1 35 
44 46 46 42 17 29 52 56 63 68 65 52 67 73 73 81 77 80 81 96 112 116 91 87 76 79 64 32 32 13 9 3 1 1 1 37 46 46 47 41 
17 25 51 57 63 67 68 56 66 73 71 76 86 84 84 87 116 114 90 86 76 82 63 35 27 13 10 3 1 1 1 32 46 46 47 41 17 26 45 52 
60 61 70 58 65 71 68 81 88 82 92 92 118 122 86 92 82 85 65 35 30 14 10 4 1 1 1 19 45 48 46 36 17 22 42 56 60 61 69 58 
68 76 68 73 80 81 87 84 119 118 93 95 87 84 64 32 27 16 11 4 1 1 1 10 44 46 45 36 17 22 42 54 56 54 69 60 68 76 71 76 
74 84 90 81 118 115 96 88 97 78 61 31 27 18 10 4 1 1 1 6 45 46 45 32 20 23 42 52 55 48 68 63 69 73 74 74 77 79 87 85 
119 109 112 101 87 72 59 29 24 21 12 6 1 1 1 4 46 47 44 34 22 23 44 50 56 48 64 61 72 76 74 74 72 78 92 86 121 104 112 107 
84 64 56 34 29 24 13 7 1 1 0 2 45 47 42 32 21 18 39 47 57 51 61 57 73 78 80 79 73 85 93 87 124 96 112 107 79 62 47 34 
30 18 13 8 1 1 0 1 46 45 41 29 19 17 35 51 56 55 63 57 72 81 78 82 74 87 88 99 122 97 109 101 71 52 59 37 26 16 13 8 
1 1 1 0 45 44 42 30 18 15 32 51 57 55 62 59 73 84 84 80 72 80 101 107 119 100 114 92 70 52 66 53 27 15 12 8 1 1 1 0 
45 44 41 31 17 15 25 49 56 60 60 63 72 81 88 81 69 79 101 99 116 92 108 88 76 58 76 52 24 15 12 9 1 1 1 0 47 41 41 28 
15 14 18 46 58 61 59 66 77 82 84 82 69 78 96 87 121 100 111 96 78 67 82 55 20 14 14 8 1 1 0 0 47 45 36 25 14 12 12 45 
58 68 62 65 79 92 81 86 73 72 87 90 116 111 112 100 90 73 77 52 19 13 17 9 1 1 0 0 51 43 33 23 13 11 12 49 58 71 65 69 
77 96 85 88 74 73 82 88 115 114 112 103 95 74 80 49 20 13 17 9 1 1 1 0 56 45 29 22 13 10 10 45 59 72 66 72 81 97 78 84 
71 74 79 92 109 119 116 93 92 81 77 46 20 16 17 9 1 1 1 0 51 43 26 22 12 11 9 41 61 69 71 76 85 97 77 82 74 74 77 91 
112 127 115 85 90 85 78 54 26 20 15 10 1 1 1 0 45 43 23 21 11 10 8 35 64 68 78 80 86 101 77 84 72 72 74 96 114 116 114 84 
78 88 80 63 35 24 16 10 1 1 1 1 44 42 30 20 11 9 7 29 65 67 80 84 90 105 79 87 72 72 78 85 105 115 107 86 80 85 80 64 
33 29 18 11 2 1 1 1 43 43 31 17 11 10 8 24 61 70 84 78 82 108 79 88 72 71 79 90 105 101 93 88 78 87 80 64 32 30 18 13 
2 1 1 2 43 43 27 17 10 10 8 19 56 69 81 79 82 105 77 99 73 70 76 88 93 96 93 82 73 84 84 72 36 30 16 13 3 1 1 2 
43 38 25 13 10 8 7 15 51 73 82 78 81 105 81 101 71 68 77 85 86 84 91 80 73 92 90 67 46 30 16 14 4 1 1 2 42 34 22 12 
8 8 6 12 44 73 79 74 80 104 80 100 73 63 74 86 77 81 100 84 74 97 96 71 44 27 17 13 5 1 1 3 41 28 17 12 7 7 8 10 
37 70 78 79 84 100 87 99 74 63 73 81 76 88 97 91 80 93 100 78 38 21 17 12 4 1 2 3 36 23 15 10 6 7 9 9 31 65 73 77 
81 97 91 95 74 61 73 86 81 92 114 90 79 93 97 77 42 23 17 11 4 1 2 3 33 23 14 9 4 6 10 9 27 57 72 77 74 93 85 97 
77 63 72 92 87 95 118 86 80 96 85 66 45 23 16 11 3 1 1 2 32 24 14 8 4 6 10 9 22 55 66 79 76 85 81 97 79 66 71 95 
100 108 116 86 81 90 81 70 48 22 15 10 5 1 1 2 32 24 13 7 4 7 10 8 20 52 68 79 74 84 84 91 80 68 68 105 118 119 100 82 
79 86 78 65 45 17 14 12 6 1 1 1 30 25 12 7 5 7 9 8 17 48 64 81 74 82 87 88 80 67 62 112 122 128 99 84 79 88 73 63 
37 16 13 12 6 1 1 1 32 27 10 7 7 8 8 9 15 45 65 79 78 88 87 79 86 67 65 109 131 124 105 91 79 86 74 62 32 17 13 11 
5 1 1 1 33 26 10 8 8 8 8 9 14 45 65 74 81 82 84 77 87 65 66 103 131 116 101 84 82 85 74 60 29 17 13 12 6 1 1 1 
33 25 10 8 8 8 10 10 14 49 65 70 85 78 74 80 86 69 64 97 130 116 90 79 78 79 70 52 23 16 13 12 5 1 1 1 32 28 9 8 
8 7 10 12 15 50 64 69 84 73 69 81 91 71 67 92 127 109 92 81 84 86 69 51 25 15 14 11 5 1 1 1 34 23 9 7 8 8 13 16 
17 52 66 68 87 66 69 76 92 72 66 91 130 116 96 82 78 88 72 54 32 16 14 11 6 1 1 1 34 18 9 8 8 9 18 21 26 50 65 66 
85 68 64 77 85 72 69 88 121 108 99 78 76 84 79 59 32 16 15 10 4 1 1 1 33 17 9 8 8 8 19 26 28 52 64 66 81 66 65 71 
73 82 71 78 107 107 108 77 73 78 92 64 35 19 14 11 4 1 1 1 28 17 9 8 7 9 20 35 35 49 62 66 82 67 67 64 73 88 74 78 
96 104 99 74 66 70 96 69 45 20 13 10 4 1 1 0 22 16 9 8 8 11 23 45 36 47 58 67 73 71 71 65 70 93 80 70 97 108 105 74 
64 69 74 79 46 20 12 10 4 1 1 0 19 17 9 9 9 14 25 47 35 49 57 67 68 76 76 67 69 97 87 64 93 119 109 80 69 64 69 72 
43 18 12 10 5 1 1 0 20 19 9 9 11 17 32 47 30 50 58 68 65 81 74 69 69 105 92 67 90 118 109 84 72 63 62 59 40 19 13 9 
5 1 1 0 24 17 9 10 15 25 37 37 29 45 59 68 63 77 74 67 67 107 96 73 93 124 112 87 80 60 56 41 29 20 13 9 5 1 1 0 
24 17 10 12 23 32 43 31 31 47 60 70 64 79 76 68 64 105 100 80 101 121 116 101 85 60 48 37 30 17 13 9 4 1 1 0 26 17 9 15 
32 37 47 29 34 48 58 70 65 74 71 68 66 90 93 77 112 118 93 95 77 60 37 34 27 16 13 8 4 1 1 0 29 22 9 17 40 41 45 30 
36 47 57 67 66 69 72 68 66 88 82 77 121 105 85 85 72 58 29 40 32 17 12 9 5 1 1 0 31 25 9 21 41 49 47 37 35 51 56 65 
69 66 67 70 68 81 78 90 118 108 82 85 76 56 29 42 27 15 12 9 5 1 1 0 30 24 9 25 45 51 43 42 38 51 58 64 70 63 64 70 
67 84 80 95 124 108 80 76 76 58 27 31 20 16 12 8 4 1 1 0 32 23 9 30 45 51 45 47 40 52 59 64 68 64 59 69 66 81 95 95 
121 100 80 77 76 60 33 18 17 14 11 8 5 1 1 0 35 20 9 29 44 51 49 50 40 51 58 62 68 66 58 68 68 82 101 112 114 91 76 74 
77 59 33 22 16 12 10 7 5 1 1 0 37 20 9 25 43 54 54 57 42 52 59 61 66 66 60 66 64 76 93 101 109 82 74 73 77 62 35 22 
14 12 11 8 6 1 1 0 37 20 8 30 46 56 57 57 43 50 59 61 64 65 64 64 62 70 86 97 96 80 77 70 70 66 39 19 16 12 10 7 
6 1 1 0 35 17 10 33 46 55 57 59 43 51 62 59 63 65 66 62 62 69 82 91 109 73 86 77 68 63 46 22 15 12 10 6 6 1 1 0 
37 18 11 37 47 59 62 60 46 51 61 58 63 64 71 59 62 68 84 92 108 77 81 80 66 66 49 34 19 11 10 7 5 1 1 0 38 21 12 39 
50 57 63 62 51 50 61 60 60 63 77 62 62 69 81 87 95 79 81 82 66 65 54 40 18 12 10 6 4 1 1 0 37 18 14 41 51 56 60 62 
49 54 62 56 60 61 76 64 68 72 78 84 93 92 79 84 73 63 45 38 20 12 10 6 4 1 1 0 39 18 14 45 51 58 61 63 50 54 61 56 
60 58 74 65 70 70 79 86 85 101 77 80 66 57 50 36 22 12 9 6 3 1 1 0 42 20 14 42 51 58 64 62 50 53 61 59 60 61 79 66 
66 70 79 86 84 105 76 79 66 53 35 40 24 13 8 6 2 1 1 0 43 20 16 46 52 56 63 63 52 54 57 60 62 63 79 66 68 68 76 82 
84 103 78 78 64 56 35 36 25 14 9 5 1 1 0 0 41 22 16 43 51 55 59 63 54 51 56 62 61 63 76 65 66 66 72 73 77 100 72 69 
65 53 37 30 23 12 9 4 1 1 0 0 42 24 16 41 50 54 59 66 57 51 53 61 59 63 74 66 66 65 69 71 74 95 69 68 64 45 37 27 
22 13 9 4 1 1 1 0 41 26 17 41 51 51 56 66 59 51 51 59 61 62 77 67 65 63 70 67 73 90 68 64 53 53 32 27 20 13 8 4 
1 1 0 0 41 25 17 42 50 54 55 64 58 49 52 56 60 62 77 65 65 63 65 69 72 84 72 66 58 56 32 24 18 13 8 3 1 1 0 0 
41 28 15 39 50 51 53 65 57 53 51 52 60 62 73 63 65 65 63 69 69 80 71 72 62 58 33 25 20 12 8 3 1 1 1 0 42 29 13 37 
50 52 53 62 57 51 46 51 56 58 74 64 66 72 66 68 72 77 68 74 65 53 34 23 19 12 6 3 1 1 0 0 40 29 11 34 49 47 47 65 
57 54 45 51 52 58 73 67 70 72 68 68 73 70 64 74 61 44 31 23 17 12 6 2 1 1 0 0 39 29 10 30 47 50 47 64 58 51 42 49 
53 59 81 65 69 78 66 69 72 66 60 77 63 51 30 19 14 12 5 3 1 1 0 0 35 32 11 29 47 49 49 63 56 52 37 50 54 56 77 70 
67 77 69 71 72 64 58 70 62 50 29 17 13 9 4 3 1 1 0 0 33 31 10 28 48 51 50 62 55 51 41 48 51 52 71 68 64 72 68 67 
72 65 58 61 56 46 26 17 12 8 4 2 1 1 0 0 32 29 10 27 46 50 51 63 57 52 38 51 54 52 72 68 65 73 69 62 70 69 55 56 
52 37 23 15 12 7 4 1 1 1 0 0 32 29 11 24 45 51 47 61 55 53 41 51 48 47 76 68 66 71 70 59 70 71 56 49 49 30 21 16 
12 6 3 1 1 1 0 0 31 29 12 21 38 49 46 56 55 54 44 51 45 53 76 68 70 68 71 56 72 74 63 51 42 27 19 14 9 6 2 1 
1 1 0 0 31 26 12 20 42 48 44 54 56 51 43 49 49 56 70 72 72 64 74 58 66 74 62 54 38 28 17 12 8 5 2 1 1 0 0 0 
32 24 14 17 34 47 45 53 54 52 41 43 54 58 67 69 71 58 70 59 63 73 60 58 34 27 14 10 9 4 3 1 1 1 0 0 31 23 17 14 
32 45 41 52 57 51 45 43 54 61 64 69 63 58 70 65 61 68 56 58 30 24 13 10 7 3 3 1 1 0 0 0 34 25 18 13 30 49 46 49 
62 51 41 45 51 54 63 71 61 65 71 64 57 62 53 55 24 19 12 8 6 3 2 1 1 0 0 0 34 25 19 14 24 44 47 50 60 50 36 45 
48 55 61 72 57 68 73 64 57 56 49 51 25 12 10 8 7 2 1 1 1 0 0 0 35 27 17 12 20 41 49 48 60 48 36 40 47 50 64 73 
57 73 74 64 59 50 45 44 23 12 10 8 5 2 1 1 1 0 0 0 32 29 19 12 18 40 47 45 61 46 32 43 42 50 69 78 55 70 71 64 
61 46 36 37 23 12 9 6 4 2 1 1 1 0 0 0 30 30 20 12 16 32 48 45 61 47 32 41 40 52 68 78 58 71 68 61 58 49 30 33 
18 12 8 7 3 2 1 1 1 0 0 0 28 31 23 11 17 26 46 44 56 45 31 42 45 55 67 81 58 64 66 60 58 49 31 25 14 11 7 4 
3 3 1 1 0 0 0 0 27 29 25 10 17 22 43 45 56 45 31 41 48 59 63 88 49 60 68 60 57 48 30 22 13 10 7 3 2 2 1 1 
0 0 0 0 27 29 29 13 15 19 45 43 53 43 30 38 45 63 65 87 51 60 61 58 54 43 26 22 12 9 6 4 1 1 1 1 0 0 0 0 
24 28 29 14 12 19 38 40 52 41 31 33 46 59 67 79 57 63 58 59 56 40 23 17 12 8 5 3 1 1 1 1 0 0 0 0 24 28 32 17 
9 14 32 38 50 37 30 30 37 59 66 74 58 65 55 60 51 46 24 13 10 7 4 2 1 1 1 0 0 0 0 0 22 25 31 23 9 12 33 37 
48 35 30 29 41 60 66 63 53 64 57 54 50 39 22 11 9 6 4 2 1 1 1 0 0 0 0 0 22 24 32 28 10 10 21 33 46 32 30 24 
43 53 62 61 50 58 64 52 42 37 18 10 8 5 4 1 1 1 1 1 0 0 0 0 22 23 30 31 8 9 15 33 44 32 28 24 43 53 55 56 
48 51 63 42 35 26 15 10 6 4 3 1 1 1 1 0 0 0 0 0 23 23 28 32 12 8 10 33 40 28 25 22 41 53 60 54 44 49 57 47 
28 20 15 8 4 4 2 1 1 1 1 0 0 0 0 0 20 23 25 32 16 7 10 29 33 25 22 20 41 45 55 52 45 46 51 46 22 13 11 6 
4 3 1 1 1 1 1 0 0 0 0 0 19 20 22 30 18 7 9 17 32 23 19 19 35 47 54 45 46 41 42 41 20 11 9 5 4 3 1 1 
1 1 0 0 0 0 0 0 20 21 19 27 24 7 8 11 22 22 17 20 30 45 52 41 39 39 35 33 17 10 6 5 4 2 1 1 1 1 0 0 
0 0 0 0 19 20 19 24 24 8 7 9 11 17 15 22 30 43 50 28 32 33 35 27 12 10 3 3 2 1 2 1 1 1 0 0 0 0 0 0 
16 21 23 23 25 10 5 7 8 15 16 21 32 44 58 32 33 33 29 24 12 6 3 2 2 1 1 1 1 0 0 0 0 0 0 0 17 19 23 23 
24 12 3 5 3 9 15 19 25 41 62 43 35 32 25 16 8 4 3 2 2 1 1 1 1 1 0 0 0 0 0 0 18 18 20 25 27 15 2 2 
2 7 13 19 25 43 52 44 36 28 16 10 7 3 2 2 1 1 1 1 1 0 0 0 0 0 0 0 17 18 19 26 30 19 4 2 2 3 11 17 
20 32 39 41 34 22 13 9 5 3 2 1 1 1 1 1 0 0 0 0 0 0 0 0 14 18 18 23 28 20 7 1 1 2 7 12 18 25 35 37 
27 20 11 5 3 2 1 1 1 1 1 1 1 0 0 0 0 0 0 0 12 13 17 21 25 23 13 1 1 1 3 12 17 21 25 38 20 12 8 3 
2 1 1 1 2 1 1 1 0 0 0 0 0 0 0 0 12 11 15 17 22 23 21 3 1 1 2 11 17 22 23 25 17 13 6 2 1 1 1 1 
1 1 1 1 0 0 0 0 0 0 0 0 11 12 13 15 20 24 26 8 1 1 2 8 13 15 24 19 13 9 4 2 1 1 1 1 1 1 1 1 
0 0 0 0 0 0 0 0 11 11 11 14 15 19 25 13 1 1 2 4 12 15 18 14 10 7 2 2 1 1 1 1 1 1 1 1 0 0 0 0 
0 0 0 0 14 11 10 11 16 14 24 20 2 1 1 4 8 12 15 12 9 6 2 2 1 1 1 1 1 1 1 0 0 0 0 0 0 0 0 0 
24 13 13 11 13 13 17 24 4 1 1 2 6 8 10 12 7 4 1 1 1 1 1 1 1 1 0 0 0 0 0 0 0 0 0 0 26 23 17 11 
11 13 12 19 8 1 1 2 5 8 9 6 5 3 1 1 1 1 1 1 1 1 0 0 0 0 0 0 0 0 0 0 24 26 24 15 11 13 10 17 
13 1 1 1 3 5 7 5 4 2 2 1 1 1 1 1 1 0 0 0 0 0 0 0 0 0 0 0 16 27 32 20 10 11 11 12 15 1 1 1 
2 2 5 4 2 2 1 1 1 1 1 1 1 0 0 0 0 0 0 0 0 0 0 0 8 11 28 27 13 9 9 10 15 1 1 1 1 2 4 3 
2 2 1 1 1 1 1 1 1 0 0 0 0 0 0 0 0 0 0 0 7 8 16 18 24 9 9 8 12 1 1 1 1 3 3 2 2 2 1 1 
1 1 1 1 1 0 0 0 0 0 0 0 0 0 0 0 5 7 10 11 13 12 9 7 11 2 1 1 1 2 2 2 1 1 1 1 1 1 1 0 
0 0 0 0 0 0 0 0 0 0 0 0 3 4 6 8 8 9 8 7 11 4 1 1 1 1 1 2 1 1 1 1 1 1 1 0 0 0 0 0 
0 0 0 0 0 0 0 0 1 2 5 4 4 4 4 7 9 8 1 1 1 1 1 1 1 1 1 1 1 1 1 0 0 0 0 0 0 0 0 0 
0 0 0 0 1 1 1 1 1 2 1 2 3 4 1 1 1 1 1 1 1 1 1 1 1 1 0 0 0 0 0 0 0 0 0 0 0 0 0 0 
1 1 1 1 1 1 1 1 1 1 2 1 1 1 1 1 1 1 1 1 1 0 0 0 0 0 0 0 0 0 0 0 0 0 0 0 1 1 1 1 
1 1 1 1 1 1 1 1 1 1 1 1 1 1 1 1 1 0 0 0 0 0 0 0 0 0 0 0 0 0 0 0 1 1 1 1 1 1 1 1 
1 1 1 1 1 1 1 1 1 1 1 1 1 0 0 0 0 0 0 0 0 0 0 0 0 0 0 0 1 1 1 1 1 1 1 1 1 1 1 1 
1 1 1 1 1 1 1 1 1 0 0 0 0 0 0 0 0 0 0 0 0 0 0 0 1 1 1 1 1 1 1 1 1 1 1 1 1 1 1 1 
1 1 1 1 0 0 0 0 0 0 0 0 0 0 0 0 0 0 0 0 1 1 1 1 1 1 1 1 1 1 1 1 1 1 1 1 1 1 1 0 
0 0 0 0 0 0 0 0 0 0 0 0 0 0 0 0 1 1 1 1 1 1 1 1 1 1 1 1 1 1 1 1 1 1 1 0 0 0 0 0 
0 0 0 0 0 0 0 0 0 0 0 0 1 1 1 1 0 1 1 1 1 1 1 1 1 1 1 1 1 1 0 0 0 0 0 0 0 0 0 0 
0 0 0 0 0 0 0 0 0 1 1 1 0 0 1 1 1 1 1 1 1 1 0 1 1 0 0 0 0 0 0 0 0 0 0 0 0 0 0 0 
0 0 0 0 1 0 1 0 0 0 0 0 1 1 1 1 1 1 0 0 0 0 0 0 0 0 0 0 0 0 0 0 0 0 0 0 0 0 0 0 
1 0 0 1 0 0 0 0 1 0 1 0 1 0 1 0 0 0 0 0 0 0 0 0 0 0 0 0 0 0 0 0 0 0 0 0 1 0 0 0 
1 0 0 0 0 0 0 0 0 0 0 0 0 0 0 0 0 0 0 0 0 0 0 0 0 0 0 0 0 0 0 0 0 0 0 0 0 0 0 0 
0 0 0 0 0 0 0 0 0 0 0 0 0 0 0 0 0 0 0 0 0 0 0 0 0 0 0 0 0 0 0 0 0 0 0 0 0 0 0 0 
0 0 0 0 0 0 0 0 0 0 0 0 0 0 0 0 0 0 0 0 0 0 0 0 0 0 0 0 0 0 0 0 0 0 0 0 0 0 0 0 
0 0 0 0 0 0 0 0 0 0 0 0 0 0 0 0 0 0 0 0 0 0 0 0 0 0 0 0 0 0 0 0 0 0 0 0 0 0 0 0 
0 0 0 0 0 0 0 0 0 0 0 0 0 0 0 0 