P2
36 216
103
3 2 1 0 0 1 1 1 0 0 0 0 0 0 0 0 0 0 0 0 0 0 0 0 0 0 0 0 0 0 0 0 0 0 0 0 4 3 1 0 
1 2 2 1 0 0 0 1 1 1 0 0 0 0 0 0 0 0 0 0 0 0 0 0 0 0 0 0 0 0 0 0 4 3 2 1 2 2 1 0 
0 0 2 4 4 3 1 1 0 0 0 0 0 0 0 0 0 0 0 0 0 0 0 0 0 0 0 0 5 4 4 3 2 2 1 0 0 1 7 9 
7 5 4 2 1 1 0 0 0 0 0 0 0 0 0 0 0 0 0 0 0 0 0 0 5 6 6 4 2 1 0 0 0 4 13 18 12 8 6 4 
3 2 1 1 0 0 0 0 0 0 0 0 0 0 0 0 0 0 0 0 7 8 6 4 3 1 0 0 2 9 20 25 23 18 14 8 5 4 3 2 
0 0 0 0 0 0 0 0 0 0 0 0 0 0 0 0 10 10 6 5 5 1 0 1 4 12 17 21 27 28 27 19 13 8 6 3 1 0 0 0 
0 0 0 0 0 0 0 0 0 0 0 0 13 13 7 4 4 2 1 2 7 12 14 14 20 27 30 28 25 21 12 6 2 0 0 0 0 0 0 0 
0 0 0 0 0 0 0 0 16 15 8 4 3 2 2 3 8 10 13 13 14 24 29 30 29 31 26 12 4 1 0 0 0 0 0 0 0 0 0 0 
0 0 0 0 18 17 8 3 2 3 3 5 8 10 13 11 13 21 28 28 27 28 34 24 7 2 0 0 0 0 0 0 0 0 0 0 0 0 0 0 
16 13 7 3 2 3 3 6 7 11 13 11 13 20 28 26 26 23 28 38 15 4 0 0 0 0 0 0 0 0 0 0 0 0 0 0 13 10 8 4 
2 3 4 6 7 11 14 11 13 20 28 27 23 21 22 39 33 6 2 0 0 0 0 0 0 0 0 0 0 0 0 0 12 10 8 4 2 2 4 6 
7 12 13 10 13 21 26 26 21 18 21 34 41 12 4 0 0 0 0 0 0 0 0 0 0 0 0 0 12 11 8 5 3 2 3 5 9 14 12 10 
13 20 25 25 21 16 20 28 40 23 5 1 0 0 0 0 0 0 0 0 0 0 0 0 12 11 8 5 4 2 4 5 12 18 12 9 13 17 24 23 
18 15 19 24 35 35 7 2 0 0 0 0 0 0 0 0 0 0 0 0 12 11 8 6 5 3 5 6 18 22 12 10 13 15 22 23 16 14 19 23 
30 38 13 4 0 0 0 0 0 0 0 0 0 0 0 0 13 11 8 6 4 3 6 11 26 27 13 10 14 16 21 23 16 15 17 22 26 36 25 5 
1 0 0 0 0 0 0 0 0 0 0 0 14 12 9 6 4 4 6 19 34 29 14 11 14 18 21 23 18 14 17 21 24 32 35 7 2 0 0 0 
0 0 0 0 0 0 0 0 14 12 9 6 5 4 8 24 37 27 12 10 14 20 21 22 19 14 15 21 24 28 37 13 3 0 0 0 0 0 0 0 
0 0 0 0 14 13 9 7 5 5 10 26 34 25 11 11 15 20 23 24 20 15 14 19 24 27 35 25 5 0 0 0 0 0 0 0 0 0 0 0 
17 14 11 8 6 5 13 23 27 24 10 11 15 21 24 26 23 18 14 17 24 25 32 35 6 1 0 0 0 0 0 0 0 0 0 0 21 15 11 9 
7 7 16 18 21 22 10 11 18 24 26 27 25 22 15 16 22 25 30 38 10 3 0 0 0 0 0 0 0 0 0 0 25 17 12 9 8 10 16 17 
16 21 10 13 20 27 30 29 25 25 19 18 20 24 27 36 18 5 0 0 0 0 0 0 0 0 0 0 29 18 13 10 11 11 15 15 14 19 11 14 
21 30 32 32 26 27 21 21 20 23 25 34 31 6 0 0 0 0 0 0 0 0 0 0 31 18 13 12 15 12 13 14 14 17 11 16 21 31 34 33 
27 28 22 23 20 22 25 31 38 7 1 0 0 0 0 0 0 0 0 0 32 18 14 15 16 12 13 15 15 16 12 19 23 31 35 33 30 31 24 26 
21 21 25 30 39 11 3 0 0 0 0 0 0 0 0 0 36 21 17 17 17 11 13 15 18 16 13 21 27 31 37 35 34 35 26 29 24 21 25 30 
34 19 5 0 0 0 0 0 0 0 0 0 45 25 20 18 19 12 14 16 21 17 15 23 29 32 40 37 37 37 29 31 27 20 24 29 30 30 6 0 
0 0 0 0 0 0 0 0 55 30 22 18 20 12 15 16 22 20 17 26 31 35 42 39 40 38 31 33 28 21 22 28 28 36 7 1 0 0 0 0 
0 0 0 0 59 35 24 17 21 14 17 17 23 23 20 30 35 37 42 42 42 39 34 36 29 21 22 29 27 38 9 2 0 0 0 0 0 0 0 0 
60 40 29 17 25 16 17 19 24 27 23 32 39 40 45 43 43 42 37 37 30 23 22 28 27 35 14 4 0 0 0 0 0 0 0 0 62 45 34 19 
32 22 18 20 26 31 25 33 43 43 47 45 44 44 38 37 30 26 24 27 27 31 22 5 0 0 0 0 0 0 0 0 64 50 36 23 36 28 20 22 
29 35 28 34 45 47 49 47 46 49 41 38 33 28 25 26 26 27 31 6 0 0 0 0 0 0 0 0 64 51 36 29 39 32 21 23 30 39 30 36 
47 51 51 48 49 51 42 40 35 30 27 24 27 26 36 8 1 0 0 0 0 0 0 0 66 52 33 36 42 36 23 25 32 40 32 39 50 52 52 47 
52 51 43 41 36 34 28 24 27 25 38 10 3 0 0 0 0 0 0 0 68 51 32 40 45 40 25 27 34 43 34 39 52 55 52 48 52 50 46 45 
39 37 28 24 27 25 36 15 4 0 0 0 0 0 0 0 71 49 32 43 52 45 27 30 37 45 35 41 54 56 50 49 53 48 48 48 42 40 30 24 
26 25 32 24 6 0 0 0 0 0 0 0 73 47 31 46 60 50 31 33 42 46 36 42 55 59 51 52 55 48 49 48 46 42 32 24 25 25 29 33 
7 0 0 0 0 0 0 0 72 45 32 47 64 58 36 38 49 49 37 43 57 59 52 54 56 49 50 48 47 43 36 27 24 24 27 38 8 1 0 0 
0 0 0 0 66 44 34 47 66 67 43 43 60 54 37 44 60 60 53 57 57 51 52 48 47 44 38 30 24 23 25 39 10 2 0 0 0 0 0 0 
58 43 37 46 66 75 52 47 70 60 36 46 62 59 56 61 56 53 53 49 47 46 41 31 25 22 25 36 14 4 0 0 0 0 0 0 53 42 38 45 
66 82 62 54 77 64 37 49 63 59 57 62 56 55 55 53 49 46 43 35 27 22 26 34 22 5 0 0 0 0 0 0 48 39 37 42 65 88 74 62 
83 66 38 50 64 61 60 62 56 56 57 56 49 48 44 37 28 22 25 32 33 6 0 0 0 0 0 0 44 39 37 39 65 90 84 66 86 65 39 51 
65 61 61 61 58 58 60 57 49 48 44 39 28 21 26 29 44 8 0 0 0 0 0 0 43 39 36 37 65 82 86 68 87 65 40 51 63 61 62 62 
59 59 63 57 52 50 44 42 30 20 25 27 51 10 1 0 0 0 0 0 42 39 35 37 63 74 84 67 84 64 40 52 62 63 63 64 63 60 64 59 
54 51 46 46 33 21 25 26 54 12 2 0 0 0 0 0 41 38 35 36 58 68 82 66 82 60 41 52 62 63 65 66 66 62 66 60 56 51 50 49 
34 23 24 25 51 17 3 0 0 0 0 0 39 38 35 33 54 64 80 64 80 58 41 55 63 65 66 68 66 65 66 60 58 52 55 50 35 25 24 25 
46 26 5 0 0 0 0 0 39 37 33 33 51 60 77 62 78 56 42 58 64 67 68 69 66 65 67 62 59 53 58 51 37 28 21 25 41 38 6 0 
0 0 0 0 40 37 32 32 49 59 75 61 77 55 43 59 64 69 71 70 66 65 66 65 61 56 59 50 40 30 20 24 36 49 7 0 0 0 0 0 
42 41 34 33 48 58 73 63 77 53 45 59 65 71 75 72 67 65 67 67 62 57 57 47 43 32 21 24 34 55 9 0 0 0 0 0 47 48 40 38 
45 56 69 64 77 51 46 62 67 73 79 76 68 65 69 68 63 60 54 46 46 33 21 23 30 60 11 1 0 0 0 0 53 56 50 43 41 54 68 66 
77 48 46 63 70 76 81 80 71 66 70 68 63 61 52 46 49 33 23 23 28 63 14 2 0 0 0 0 57 60 55 48 40 50 66 67 77 48 47 62 
70 78 84 83 73 68 71 66 62 61 53 49 48 32 24 23 27 60 17 2 0 0 0 0 62 62 61 47 41 46 64 69 76 47 47 63 69 79 83 84 
75 68 69 64 62 60 54 54 49 31 25 23 27 55 23 3 0 0 0 0 67 65 63 51 44 46 62 70 73 47 48 60 66 82 80 86 79 72 70 62 
63 60 57 58 48 33 27 23 27 49 31 4 0 0 0 0 70 65 64 53 48 47 60 68 72 47 51 59 64 80 78 89 82 74 71 64 65 62 59 58 
46 35 28 22 26 43 39 5 0 0 0 0 72 66 61 55 52 48 61 68 71 48 53 60 62 80 76 90 85 76 71 66 65 63 60 59 46 37 31 23 
25 38 45 6 0 0 1 0 72 64 58 57 53 52 64 69 70 49 57 62 63 81 76 88 91 78 72 68 68 65 61 56 46 40 33 24 23 34 51 7 
0 0 1 0 74 62 55 55 52 56 68 71 67 49 58 65 66 83 75 84 93 78 75 70 69 65 61 55 48 42 35 25 24 31 55 9 0 0 1 0 
76 59 52 52 51 58 73 69 63 48 58 65 69 81 73 77 92 81 80 71 68 66 60 54 51 45 34 26 26 28 58 10 1 1 1 0 74 57 49 49 
51 62 77 64 58 46 57 65 73 81 69 73 89 84 82 72 70 66 59 54 53 46 36 27 26 28 59 12 1 1 1 0 75 58 47 48 51 65 78 59 
54 46 59 63 73 78 65 69 86 88 84 73 70 66 60 56 55 48 37 27 25 27 58 14 2 1 1 1 76 61 46 46 53 69 75 58 52 47 60 65 
76 77 63 67 83 92 87 76 70 66 61 57 54 50 40 28 26 27 54 18 2 0 1 2 77 62 44 46 57 73 70 58 52 48 61 66 75 74 64 68 
80 96 91 80 71 68 64 59 55 51 41 28 25 26 49 22 2 0 2 4 76 62 46 48 62 77 66 59 52 48 62 66 75 71 64 65 77 98 94 81 
71 71 67 60 54 51 44 29 24 25 45 28 3 0 3 6 76 63 49 52 67 80 64 58 53 49 62 64 70 68 63 65 70 96 93 84 71 75 70 58 
54 54 46 29 22 25 42 34 4 0 4 8 76 64 54 56 72 78 63 59 54 49 62 63 67 66 64 62 65 93 95 86 73 78 71 60 56 55 46 31 
22 24 39 40 4 0 4 9 77 67 59 61 75 73 64 60 55 49 62 62 65 61 65 61 60 87 97 86 73 80 74 62 61 55 46 32 22 24 36 44 
5 0 5 10 78 70 62 64 68 67 64 61 56 51 63 61 61 60 63 61 56 80 97 88 74 81 78 66 65 53 47 34 22 23 32 47 6 0 6 11 
78 73 64 66 62 62 61 63 57 53 62 59 57 58 61 59 55 72 98 89 78 80 79 70 66 52 49 35 22 22 32 50 7 0 8 12 73 71 64 65 
59 58 60 64 57 53 61 56 55 56 58 58 55 67 97 90 81 78 79 71 65 52 50 36 23 20 32 50 8 0 14 18 71 69 65 65 59 56 59 65 
60 54 60 53 56 54 57 56 56 67 96 92 84 76 80 71 61 52 51 38 24 20 31 51 9 1 17 32 68 67 67 68 57 55 59 65 61 54 59 50 
54 53 56 56 56 65 92 93 86 75 80 72 58 53 52 39 26 22 29 50 10 1 16 45 67 68 68 69 56 55 60 67 63 55 56 48 55 52 54 55 
56 65 91 95 89 74 80 71 58 53 54 41 27 24 29 50 11 2 13 44 66 67 66 69 55 56 63 68 65 56 54 48 55 50 53 57 58 66 89 95 
88 73 79 70 58 55 54 42 28 23 28 48 12 3 10 33 66 66 66 68 53 57 64 70 67 56 51 48 54 50 54 61 61 69 89 97 86 73 79 71 
62 56 53 43 29 24 27 47 13 4 9 22 65 65 65 67 54 56 67 70 70 55 50 49 56 53 55 64 65 72 88 97 84 73 77 72 66 59 53 44 
32 25 27 46 15 5 10 15 65 64 65 68 54 56 69 69 70 55 49 49 55 55 55 64 69 73 87 95 83 74 77 74 70 62 54 44 34 26 27 44 
19 6 10 12 64 65 66 70 54 55 71 69 73 55 47 48 55 55 54 63 71 74 84 93 79 75 79 75 70 64 55 44 35 28 27 42 22 6 11 12 
65 65 67 70 53 53 71 70 75 57 46 46 55 55 54 61 71 75 84 92 76 78 79 75 72 67 55 46 37 29 28 39 25 7 10 12 64 65 70 73 
53 52 71 71 79 61 46 43 55 55 52 60 72 77 80 91 77 82 80 76 72 66 54 46 37 29 27 38 30 6 10 12 65 64 71 73 52 52 71 73 
80 63 48 41 54 56 53 61 71 78 80 87 79 84 82 77 73 67 53 48 38 29 28 36 34 6 9 13 64 66 72 71 50 54 72 74 79 65 50 42 
54 58 58 62 70 78 80 86 81 88 84 78 74 65 52 50 39 30 28 35 37 5 8 15 65 65 72 69 49 54 72 73 81 68 52 44 54 60 61 64 
69 75 77 86 83 90 86 82 76 64 52 51 40 30 29 33 39 5 4 16 64 66 72 68 47 55 72 74 81 69 55 44 54 64 64 66 68 73 75 86 
87 91 86 85 76 64 53 52 41 31 29 32 41 6 1 15 65 67 73 68 46 55 74 73 79 69 57 46 56 67 67 68 68 73 74 84 88 92 87 86 
74 63 56 52 44 31 30 33 39 7 0 21 67 69 73 69 46 53 74 74 77 69 58 48 57 66 69 71 70 73 73 83 91 92 88 89 74 65 56 50 
46 33 30 33 38 7 0 30 68 69 72 70 46 50 75 75 76 71 61 50 59 65 71 73 74 74 74 82 92 92 89 89 74 65 59 50 49 36 30 32 
37 8 0 36 67 69 71 69 47 49 74 74 75 70 65 52 59 66 69 75 74 78 77 84 94 94 90 89 75 69 62 51 51 38 30 32 37 9 0 38 
66 69 71 69 47 49 70 74 72 70 66 54 61 66 68 75 76 78 80 85 96 95 89 87 78 74 65 54 55 39 30 31 36 10 1 37 64 68 70 67 
49 49 65 72 69 69 68 56 62 68 68 74 78 79 83 87 98 97 89 87 79 78 65 58 55 41 30 30 36 11 1 30 61 67 68 66 49 48 60 67 
67 66 70 56 63 68 68 74 78 80 84 85 98 98 88 88 81 78 66 57 55 41 30 30 38 13 1 19 60 66 67 65 50 47 54 66 67 64 72 57 
64 70 67 73 78 80 83 84 98 100 88 90 85 78 66 57 52 40 31 30 37 13 1 11 57 66 66 64 50 47 54 64 68 61 72 59 64 71 69 73 
77 82 82 84 99 99 91 92 87 74 64 54 51 39 30 31 38 16 1 6 56 67 67 62 51 48 54 65 65 58 68 60 66 72 70 73 75 83 82 83 
100 98 95 94 84 70 62 53 49 37 30 32 37 18 1 3 54 66 67 61 50 48 54 63 63 56 65 61 68 73 73 73 74 84 85 82 100 96 96 93 
81 66 62 53 49 40 29 32 37 20 1 2 55 66 65 58 47 45 51 61 62 57 63 60 71 74 75 75 72 84 85 85 101 94 99 94 77 62 62 54 
51 41 29 29 36 22 2 0 58 60 61 54 45 42 49 57 61 56 61 58 73 75 77 78 72 83 85 86 101 94 98 92 71 60 65 57 52 43 28 30 
36 24 2 0 59 58 57 50 41 37 46 54 58 55 60 60 73 77 77 78 72 82 86 86 99 93 97 88 72 62 69 61 53 46 28 30 34 27 2 0 
62 59 53 48 36 31 42 51 56 55 60 64 72 77 81 80 72 80 87 84 97 93 98 86 75 67 71 60 52 47 29 30 34 29 2 0 66 61 51 46 
33 28 34 49 58 58 61 66 73 78 81 82 73 78 86 83 96 95 95 87 80 69 73 58 49 46 31 30 33 30 2 0 73 62 48 41 31 26 29 48 
61 65 64 67 76 79 80 82 73 77 84 83 94 97 96 91 84 73 72 56 47 46 34 29 33 30 2 0 76 62 45 35 28 26 24 49 63 69 68 69 
77 83 79 80 72 75 80 84 93 97 95 91 86 76 74 55 45 46 36 29 31 32 3 0 77 63 43 34 28 26 22 48 63 70 70 74 79 82 76 79 
72 75 80 83 93 98 97 90 85 79 73 56 46 48 37 30 32 33 3 0 76 62 42 34 30 27 22 46 62 70 73 76 80 84 76 78 71 76 80 83 
93 101 98 88 85 79 72 58 50 49 38 30 31 34 3 0 69 60 42 31 32 28 24 42 61 69 74 79 80 87 76 79 71 74 80 83 92 99 99 86 
82 80 73 62 53 51 37 30 31 35 4 0 62 59 40 28 32 29 27 39 61 69 75 80 80 90 77 82 72 74 80 82 91 97 96 84 80 80 74 64 
57 52 38 31 31 37 4 2 58 56 39 25 29 27 27 36 59 69 77 79 79 91 79 83 72 71 79 83 89 92 92 83 79 79 75 68 61 55 38 32 
32 38 4 3 54 51 35 23 25 26 28 33 57 69 77 78 79 92 80 86 73 70 79 83 87 88 89 80 78 82 79 69 64 55 38 32 32 39 4 6 
50 44 31 20 19 23 28 33 53 70 77 78 79 92 81 87 73 69 76 81 83 86 89 81 78 83 81 70 66 55 39 32 32 40 5 9 45 36 26 17 
14 20 28 31 48 68 75 76 79 92 82 87 73 66 74 80 82 86 92 83 77 84 83 72 65 54 39 33 31 40 6 10 41 29 22 16 10 18 27 30 
43 67 74 76 78 89 84 88 74 64 72 79 83 86 95 85 79 84 83 74 64 51 38 33 30 41 7 10 37 25 20 13 8 18 26 28 39 64 73 75 
75 87 85 87 75 64 70 79 83 89 97 87 79 83 81 73 64 51 38 33 29 40 8 10 33 24 18 12 6 16 25 27 36 60 70 74 74 86 86 88 
77 65 69 82 85 93 97 86 80 83 79 73 65 52 37 33 27 39 8 10 32 25 16 11 5 16 24 28 35 57 67 75 73 83 85 88 78 65 68 84 
90 97 96 85 81 81 77 72 64 50 36 33 28 38 8 9 30 25 15 10 5 14 23 28 33 54 67 74 73 83 84 86 79 66 67 85 94 100 93 84 
80 79 74 71 64 49 36 33 28 37 8 9 30 25 15 10 5 14 23 28 33 51 65 74 75 82 85 86 80 66 63 85 98 103 92 84 80 77 72 68 
61 49 36 33 29 38 8 8 30 26 14 10 6 14 24 28 33 50 64 72 76 81 83 82 81 66 63 87 102 101 92 83 79 76 70 66 56 47 36 32 
29 39 9 7 31 26 13 9 8 13 23 29 33 48 63 70 77 78 81 80 81 66 66 84 102 100 91 83 80 74 69 62 52 46 35 32 30 42 9 7 
31 26 13 10 11 13 23 30 35 48 62 69 78 74 77 79 80 70 66 82 101 96 90 82 81 75 69 60 51 47 35 32 32 42 9 5 31 26 13 10 
14 13 25 31 36 48 62 67 78 72 72 79 81 72 68 81 100 95 88 81 80 76 69 59 54 46 35 32 33 44 9 2 30 26 13 12 14 13 27 33 
36 48 63 67 77 69 68 78 81 73 70 80 100 96 89 81 79 78 70 62 55 46 37 31 33 44 9 1 29 24 13 14 16 13 28 35 38 47 61 67 
76 68 68 75 78 73 70 79 98 95 89 79 77 77 73 63 55 46 38 31 33 44 10 0 29 22 14 15 16 14 29 36 40 47 60 67 76 67 66 71 
75 77 72 79 94 94 91 76 72 76 76 66 56 48 39 31 32 44 10 0 28 22 15 16 16 15 30 39 41 45 57 65 75 70 66 67 71 78 74 78 
91 93 89 75 67 72 77 69 58 50 39 32 32 45 10 0 27 21 15 16 16 18 32 42 41 44 55 65 71 72 69 63 69 80 76 76 88 93 91 75 
66 68 76 71 58 49 40 32 31 44 10 0 27 23 15 17 19 21 34 43 38 43 54 65 69 73 72 64 69 82 81 75 86 93 91 78 67 65 74 72 
60 49 40 33 32 44 10 0 30 24 15 18 21 25 38 45 37 43 55 65 69 74 74 68 69 82 83 75 87 95 92 82 70 65 69 70 59 49 40 33 
33 45 10 0 33 26 15 19 25 29 40 44 38 43 57 67 69 73 76 67 67 83 84 75 88 95 93 84 73 63 63 66 57 49 41 33 33 43 9 0 
37 27 15 20 29 32 43 42 38 43 56 67 68 73 75 67 67 81 84 77 91 95 92 86 74 60 56 63 57 51 42 33 33 44 8 0 43 29 17 21 
33 35 46 42 40 43 56 67 69 72 73 67 67 79 82 81 94 95 89 86 71 57 49 59 55 51 42 33 33 43 8 0 51 32 18 23 36 38 46 42 
41 44 55 67 70 70 71 68 66 78 80 84 97 92 86 83 70 57 43 55 52 51 42 31 32 41 7 0 56 34 19 25 37 42 48 45 42 44 54 65 
71 69 68 68 66 77 79 85 96 92 83 82 71 58 41 51 49 49 41 32 32 39 7 0 57 34 19 28 37 45 49 47 42 44 53 64 70 69 65 68 
67 77 81 86 96 92 83 79 72 59 42 48 45 45 41 32 32 36 6 0 58 33 18 30 37 46 52 48 44 45 53 63 68 67 63 67 66 77 84 90 
95 89 81 78 73 62 45 45 42 40 40 31 32 34 6 0 58 32 16 29 37 47 55 52 46 44 51 62 64 66 64 65 65 76 85 93 93 86 80 73 
73 63 49 42 39 36 39 31 32 33 5 0 57 31 15 28 36 48 57 55 47 45 52 60 63 67 65 63 64 74 84 90 91 81 80 71 73 63 51 41 
36 35 38 30 33 32 5 0 56 29 14 29 37 49 60 60 48 46 54 59 63 66 66 64 63 72 83 89 90 81 80 71 72 63 54 42 36 34 37 30 
33 30 5 0 52 29 15 30 37 49 62 62 49 48 55 58 62 66 66 63 62 71 81 87 89 79 81 72 69 64 57 44 37 33 34 30 34 28 4 0 
52 28 17 32 38 50 64 63 50 49 56 56 61 65 68 62 63 71 81 84 89 80 80 74 69 67 60 48 39 33 32 29 35 27 4 0 50 27 18 34 
40 51 64 64 52 49 56 54 61 63 70 63 62 72 80 84 87 83 79 76 69 67 62 52 41 34 31 28 36 25 4 0 50 26 20 35 41 51 64 65 
52 50 55 53 61 62 71 64 64 73 80 82 87 84 77 77 68 66 59 55 43 32 29 27 39 23 3 0 52 25 20 37 41 52 64 64 53 50 54 51 
61 62 71 65 67 71 80 82 86 87 75 75 65 62 57 57 45 31 28 26 40 21 3 0 52 26 21 36 42 51 62 62 52 49 54 53 61 63 71 65 
66 70 77 81 84 86 73 72 64 60 54 58 47 33 27 26 39 19 2 0 53 29 22 38 42 48 61 62 53 49 52 57 60 62 72 63 65 68 74 78 
81 86 73 70 62 57 53 56 48 33 25 24 39 17 2 0 53 31 23 37 41 46 59 60 54 48 50 57 58 61 72 63 63 66 73 75 78 83 71 67 
59 55 51 52 49 34 25 23 41 15 2 0 53 34 25 37 41 45 57 61 55 47 48 56 58 58 70 64 62 65 69 72 77 80 70 68 60 53 49 51 
46 32 25 21 42 14 1 0 54 36 25 37 41 44 57 61 56 46 47 54 58 58 69 64 61 64 68 69 75 78 70 67 62 54 49 48 44 31 24 21 
42 12 1 0 54 37 25 37 41 44 54 61 56 47 46 51 57 61 68 64 62 64 66 68 72 75 70 68 64 55 49 45 41 31 23 21 42 12 1 0 
55 38 26 36 41 43 52 62 56 47 44 48 57 61 68 64 62 66 67 68 71 73 70 70 65 55 47 42 39 30 22 22 40 10 0 0 55 39 26 35 
41 42 49 61 56 48 42 47 54 60 68 63 64 68 68 69 70 71 68 71 65 55 46 39 37 28 21 23 38 9 0 0 54 41 27 33 40 41 48 60 
55 48 40 47 53 61 68 63 64 69 70 70 69 68 66 70 62 54 44 37 35 26 20 25 36 8 0 0 53 42 27 33 40 41 48 61 55 49 39 44 
53 61 68 65 65 70 73 72 70 65 62 67 59 52 41 34 32 24 19 26 34 7 0 0 51 44 27 31 40 40 47 60 53 49 38 43 54 58 69 66 
65 71 72 69 71 63 57 63 56 52 40 33 28 22 18 27 29 6 0 0 49 44 28 31 40 40 47 58 52 49 38 43 52 54 67 67 65 72 70 65 
71 61 55 59 52 50 38 31 26 20 17 29 25 5 0 0 47 44 27 31 39 41 46 58 50 48 37 45 51 52 68 66 65 72 71 62 68 61 54 55 
50 49 37 29 23 20 17 32 21 5 0 0 46 43 28 31 38 40 43 56 50 48 39 45 49 51 67 65 64 70 71 59 68 62 56 54 48 47 37 29 
21 19 17 35 17 3 0 0 45 41 28 31 38 40 43 54 49 48 40 45 48 51 67 67 66 66 71 58 66 65 56 53 45 46 38 29 20 18 18 36 
14 2 0 0 46 40 29 30 38 40 42 52 48 46 40 43 49 53 66 67 66 63 72 60 61 67 58 54 44 44 37 28 20 17 20 36 11 1 0 0 
45 39 30 30 37 38 42 50 48 46 40 43 50 55 65 67 62 60 71 61 59 63 58 55 43 41 36 27 19 16 21 35 10 1 0 0 45 37 30 29 
35 37 39 47 50 44 40 40 49 57 62 67 60 61 70 62 55 59 55 55 42 39 32 25 18 16 23 30 8 0 0 0 47 37 29 28 34 38 39 46 
50 42 40 40 48 57 61 67 59 62 69 63 53 55 51 53 40 35 29 24 17 16 26 26 7 0 0 0 47 37 30 27 33 37 39 45 49 41 39 39 
49 56 60 67 58 64 69 63 53 51 48 49 40 34 27 23 17 16 30 21 5 0 0 0 49 37 29 25 30 36 38 42 48 40 38 39 48 53 62 68 
57 66 68 63 55 49 45 47 40 31 25 20 16 16 32 16 4 0 0 0 49 39 29 25 30 35 38 40 48 40 36 39 47 53 64 68 59 66 68 60 
56 48 43 45 41 29 23 17 16 17 33 13 2 0 0 0 47 40 30 25 30 33 38 39 49 40 35 37 46 54 63 68 58 63 66 60 55 47 40 40 
41 30 21 15 15 19 33 11 1 0 0 0 45 41 32 24 29 32 37 38 47 39 34 37 46 55 61 69 58 61 66 58 55 48 40 36 39 28 20 14 
15 21 31 9 0 0 0 0 44 41 33 25 28 32 36 37 46 38 34 35 46 57 60 70 58 58 64 57 53 48 39 33 35 27 18 13 16 25 27 7 
0 0 0 0 43 42 34 24 26 31 35 37 44 38 32 34 46 58 61 69 58 58 61 56 52 47 39 33 32 25 17 14 18 27 21 5 0 0 0 0 
41 42 36 26 25 30 34 36 42 37 31 33 45 57 61 68 57 59 60 57 52 46 41 32 27 22 15 14 18 28 16 4 0 0 0 0 40 41 39 28 
23 27 34 35 41 36 29 32 43 55 60 64 56 59 60 56 51 45 40 30 23 21 14 13 19 29 13 2 0 0 0 0 37 39 40 30 22 25 33 34 
40 37 28 31 43 52 59 61 55 60 61 54 50 44 39 29 20 19 14 13 19 27 10 1 0 0 0 0 34 36 40 35 21 22 32 34 38 37 28 31 
44 50 57 59 54 58 61 52 50 45 38 27 18 18 14 14 21 25 7 1 0 0 0 0 33 34 39 37 20 21 30 33 37 36 29 30 44 50 56 58 
52 54 60 53 49 44 39 26 16 15 15 15 21 20 5 0 0 0 0 0 32 33 36 38 22 20 28 32 35 34 30 27 44 49 55 57 51 51 58 52 
47 42 38 26 15 14 15 15 22 16 3 0 0 0 0 0 31 31 33 38 24 18 26 32 33 33 30 27 43 48 54 56 51 50 56 50 46 39 34 25 
14 14 14 17 24 11 2 0 0 0 0 0 31 30 32 36 27 18 24 31 33 32 28 26 42 47 55 55 50 51 52 47 43 36 30 22 13 14 15 19 
24 6 1 0 0 0 0 0 32 30 31 34 30 19 21 31 31 29 26 27 42 47 54 53 50 51 50 45 41 33 25 18 13 15 16 22 20 3 0 0 
0 0 0 0 33 30 31 32 31 20 17 28 29 27 23 29 41 46 53 51 50 49 49 43 39 31 21 14 12 15 18 25 12 2 0 0 0 0 0 0 
33 31 31 32 31 20 15 26 26 26 23 30 40 47 54 50 51 49 47 43 36 30 17 12 13 15 20 23 5 1 0 0 0 0 0 0 32 31 30 33 
31 22 13 23 24 23 22 30 40 48 55 51 51 48 44 42 34 28 15 11 13 16 24 16 3 1 0 0 0 0 0 0 32 32 30 33 29 23 14 19 
21 20 21 30 39 49 53 50 52 46 40 38 31 24 12 11 13 17 24 9 2 0 0 0 0 0 0 0 32 32 30 33 30 25 15 16 18 18 21 31 
39 50 50 49 51 45 37 34 28 20 11 11 14 19 20 5 2 0 0 0 0 0 0 0 31 32 29 33 30 26 18 15 14 16 20 31 40 46 47 47 
48 44 35 30 23 16 10 11 15 20 13 3 1 0 0 0 0 0 0 0 30 31 29 31 28 27 21 15 13 14 18 30 41 44 45 46 46 43 34 27 
19 12 11 12 15 20 7 2 0 0 0 0 0 0 0 0 29 31 30 29 27 25 24 16 14 14 16 28 39 40 44 44 44 42 32 24 16 11 11 13 
16 18 4 2 0 0 0 0 0 0 0 0 28 30 31 28 26 24 26 18 15 14 14 26 39 39 44 43 41 40 31 20 13 11 12 13 19 11 3 1 
0 0 0 0 0 0 0 0 29 31 31 30 24 23 27 22 14 14 14 24 38 39 43 42 39 37 28 17 11 11 12 14 19 6 2 0 0 0 0 0 
0 0 0 0 31 32 32 32 26 23 28 26 15 14 13 22 34 35 42 39 37 34 23 13 10 11 11 17 15 3 1 0 0 0 0 0 0 0 0 0 
33 31 31 32 26 24 29 29 16 14 12 18 31 34 39 37 34 32 19 10 11 10 11 20 8 2 0 0 0 0 0 0 0 0 0 0 31 33 32 31 
26 26 27 29 18 13 12 15 27 32 36 35 32 26 15 10 10 9 13 18 4 2 0 0 0 0 0 0 0 0 0 0 31 33 33 32 27 28 26 27 
20 13 12 13 23 29 34 32 28 20 12 10 9 10 17 11 3 1 0 0 0 0 0 0 0 0 0 0 30 30 32 33 32 30 27 24 21 12 11 12 
19 26 32 29 22 15 11 9 9 12 16 5 2 0 0 0 0 0 0 0 0 0 0 0 30 28 30 32 33 33 29 22 21 12 11 12 15 24 27 25 
17 13 11 9 9 13 13 3 1 0 0 0 0 0 0 0 0 0 0 0 27 27 29 31 32 35 30 23 21 12 10 11 14 20 22 20 13 12 11 8 
10 14 8 2 0 0 0 0 0 0 0 0 0 0 0 0 24 27 27 31 33 34 29 24 19 12 10 11 13 16 18 15 12 11 8 8 11 12 3 1 
0 0 0 0 0 0 0 0 0 0 0 0 22 25 27 30 33 36 30 24 19 13 9 10 13 14 14 13 11 9 7 9 13 8 2 1 0 0 0 0 
0 0 0 0 0 0 0 0 19 23 26 29 33 40 34 24 20 15 10 9 13 14 14 12 9 7 8 11 11 3 1 0 0 0 0 0 0 0 0 0 
0 0 0 0 17 19 23 26 31 41 44 28 19 17 10 10 13 14 14 12 7 7 9 13 7 2 1 0 0 0 0 0 0 0 0 0 0 0 0 0 
14 16 18 22 29 38 52 41 22 18 12 10 12 14 14 10 6 8 12 13 3 1 0 0 0 0 0 0 0 0 0 0 0 0 0 0 12 13 15 18 
25 33 50 57 31 18 13 11 13 15 14 10 8 11 15 8 2 0 0 0 0 0 0 0 0 0 0 0 0 0 0 0 11 11 11 14 19 25 37 56 
49 20 14 13 15 16 12 11 12 15 14 4 1 0 0 0 0 0 0 0 0 0 0 0 0 0 0 0 9 10 9 10 12 16 26 40 53 30 16 13 
15 15 13 15 16 16 9 2 0 0 0 0 0 0 0 0 0 0 0 0 0 0 0 0 7 8 8 8 8 9 14 26 40 39 20 15 16 17 19 21 
17 12 4 1 0 0 0 0 0 0 0 0 0 0 0 0 0 0 0 0 5 6 6 6 5 5 8 14 26 37 28 20 19 22 23 19 12 6 2 0 
0 0 0 0 0 0 0 0 0 0 0 0 0 0 0 0 4 5 5 4 3 2 3 8 15 24 29 26 22 23 17 11 6 3 1 0 0 0 0 0 
0 0 0 0 0 0 0 0 0 0 0 0 3 4 4 2 1 1 2 3 7 11 18 19 17 13 9 5 3 1 0 0 0 0 0 0 0 0 0 0 
0 0 0 0 0 0 0 0 2 2 2 1 1 1 1 2 3 5 8 8 9 7 4 2 1 0 0 0 0 0 0 0 0 0 0 0 0 0 0 0 
0 0 0 0 1 1 1 1 1 0 0 0 1 2 3 3 4 2 2 1 0 0 0 0 0 0 0 0 0 0 0 0 0 0 0 0 0 0 0 0 
1 1 1 1 0 0 0 0 0 0 1 1 1 1 1 0 0 0 0 0 0 0 0 0 0 0 0 0 0 0 0 0 0 0 0 0 0 0 1 0 
0 0 0 0 0 0 0 0 0 0 0 0 0 0 0 0 0 0 0 0 0 0 0 0 0 0 0 0 0 0 0 0 0 0 0 0 0 0 0 0 
0 0 0 0 0 0 0 0 0 0 0 0 0 0 0 0 0 0 0 0 0 0 0 0 0 0 0 0 0 0 0 0 0 0 0 0 0 0 0 0 
0 0 0 0 0 0 0 0 0 0 0 0 0 0 0 0 0 0 0 0 0 0 0 0 0 0 0 0 0 0 0 0 0 0 0 0 0 0 0 0 
0 0 0 0 0 0 0 0 0 0 0 0 0 0 0 0 0 0 0 0 0 0 0 0 0 0 0 0 0 0 0 0 0 0 0 0 0 0 0 0 
0 0 0 0 0 0 0 0 0 0 0 0 0 0 0 0 